<?xml version="1.0" ?><svg viewBox="0 0 64 64" xmlns="http://www.w3.org/2000/svg"><defs><style>.cls-1{fill:#616469;}.cls-2{fill:#c1c8d1;}.cls-3{fill:#f9d18b;}.cls-4{fill:#64a5f8;}.cls-5{fill:#83b7f9;}.cls-6{fill:#e6e9ed;}.cls-7{fill:#fff;}.cls-8{fill:#fbe3b9;}.cls-9{fill:none;stroke:#000;stroke-linejoin:round;stroke-width:2px;}</style></defs><title/><g data-name="Layer 9" id="Layer_9"><path class="cls-1" d="M4,62V50a3,3,0,0,1,3-3H7a3,3,0,0,1,3,3V62Z"/><rect class="cls-2" height="6" width="6" x="4" y="56"/><path class="cls-1" d="M34,43H7a3,3,0,0,1-3-3H4a3,3,0,0,1,3-3H34Z"/><polygon class="cls-3" points="19 37 13 43 7 43 13 37 19 37"/><polygon class="cls-3" points="31 37 25 43 19 43 25 37 31 37"/><polygon class="cls-4" points="60 20 32 20 36 14 56 14 60 20"/><path class="cls-5" d="M54,19a37.78,37.78,0,0,0-.336-5H36l-4,6H53.977C53.985,19.667,54,19.335,54,19Z"/><rect class="cls-2" height="38" width="24" x="34" y="20"/><path class="cls-6" d="M34,51.313C45.473,46.16,53.607,34.128,53.977,20H34Z"/><rect class="cls-7" height="18" width="16" x="38" y="24"/><path class="cls-4" d="M42,42V37a4,4,0,0,1,4-4h0a4,4,0,0,1,4,4v5Z"/><rect class="cls-4" height="8" width="16" x="38" y="46"/><rect class="cls-1" height="4" width="28" x="32" y="58"/><circle class="cls-3" cx="16" cy="14" r="12"/><path class="cls-8" d="M4,14a11.97,11.97,0,0,0,4.885,9.647C16.929,21.979,23,14.492,23,5.5c0-.432-.034-.855-.061-1.279A11.988,11.988,0,0,0,4,14Z"/><line class="cls-9" x1="34" x2="34" y1="58" y2="20"/><line class="cls-9" x1="58" x2="58" y1="20" y2="58"/><polygon class="cls-9" points="60 20 32 20 36 14 56 14 60 20"/><polyline class="cls-9" points="32 62 32 58 60 58 60 62"/><rect class="cls-9" height="8" width="16" x="38" y="46"/><line class="cls-9" x1="41" x2="51" y1="50" y2="50"/><rect class="cls-9" height="18" width="16" x="38" y="24"/><path class="cls-9" d="M42,42V37a4,4,0,0,1,4-4h0a4,4,0,0,1,4,4v5"/><path class="cls-9" d="M4,62V50a3,3,0,0,1,3-3H7a3,3,0,0,1,3,3V62"/><line class="cls-9" x1="4" x2="10" y1="56" y2="56"/><line class="cls-9" x1="1" x2="63" y1="62" y2="62"/><path class="cls-9" d="M34,43H7a3,3,0,0,1-3-3H4a3,3,0,0,1,3-3H34"/><line class="cls-9" x1="7" x2="13" y1="43" y2="37"/><line class="cls-9" x1="13" x2="19" y1="43" y2="37"/><line class="cls-9" x1="19" x2="25" y1="43" y2="37"/><line class="cls-9" x1="25" x2="31" y1="43" y2="37"/><path class="cls-9" d="M19,11h0a3,3,0,0,0-3-3h0a3,3,0,0,0-3,3h0a3,3,0,0,0,3,3h0a3,3,0,0,1,3,3h0a3,3,0,0,1-3,3h0a3,3,0,0,1-3-3h0"/><line class="cls-9" x1="16" x2="16" y1="8" y2="5"/><line class="cls-9" x1="16" x2="16" y1="20" y2="23"/><circle class="cls-9" cx="16" cy="14" r="12"/></g></svg>