<?xml version="1.0" encoding="UTF-8"?>
<svg xmlns="http://www.w3.org/2000/svg" xmlns:xlink="http://www.w3.org/1999/xlink" width="25pt" height="25pt" viewBox="0 0 25 25" version="1.1">
<g id="surface1">
<path style=" stroke:none;fill-rule:nonzero;fill:rgb(100%,88.235294%,0%);fill-opacity:1;" d="M 0.414062 15.832031 C 0.414062 20.667969 4.332031 24.585938 9.167969 24.585938 C 14 24.585938 17.917969 20.667969 17.917969 15.832031 C 17.917969 11 14 7.082031 9.167969 7.082031 C 4.332031 7.082031 0.414062 11 0.414062 15.832031 "/>
<path style=" stroke:none;fill-rule:nonzero;fill:rgb(100%,100%,100%);fill-opacity:1;" d="M 9.167969 7.082031 C 9.378906 7.082031 9.585938 7.101562 9.792969 7.113281 C 5.25 7.4375 1.664062 11.210938 1.664062 15.832031 C 1.664062 20.457031 5.25 24.230469 9.792969 24.554688 C 9.585938 24.566406 9.378906 24.585938 9.167969 24.585938 C 4.332031 24.585938 0.414062 20.667969 0.414062 15.832031 C 0.414062 11 4.332031 7.082031 9.167969 7.082031 "/>
<path style=" stroke:none;fill-rule:nonzero;fill:rgb(100%,88.235294%,0%);fill-opacity:1;" d="M 24.585938 9.167969 C 24.585938 14 20.667969 17.917969 15.832031 17.917969 C 11 17.917969 7.082031 14 7.082031 9.167969 C 7.082031 4.332031 11 0.414062 15.832031 0.414062 C 20.667969 0.414062 24.585938 4.332031 24.585938 9.167969 "/>
<path style=" stroke:none;fill-rule:nonzero;fill:rgb(100%,65.882353%,0%);fill-opacity:1;" d="M 15.832031 0.414062 C 15.621094 0.414062 15.414062 0.433594 15.207031 0.445312 C 19.75 0.769531 23.335938 4.542969 23.335938 9.167969 C 23.335938 13.789062 19.75 17.5625 15.207031 17.886719 C 15.414062 17.898438 15.621094 17.917969 15.832031 17.917969 C 20.667969 17.917969 24.585938 14 24.585938 9.167969 C 24.585938 4.332031 20.667969 0.414062 15.832031 0.414062 "/>
<path style=" stroke:none;fill-rule:nonzero;fill:rgb(0%,0%,0%);fill-opacity:1;" d="M 15.832031 18.332031 C 10.78125 18.332031 6.667969 14.21875 6.667969 9.167969 C 6.667969 4.113281 10.78125 0 15.832031 0 C 20.886719 0 25 4.113281 25 9.167969 C 25 14.21875 20.886719 18.332031 15.832031 18.332031 Z M 15.832031 0.832031 C 11.238281 0.832031 7.496094 4.570312 7.496094 9.167969 C 7.496094 13.761719 11.238281 17.503906 15.832031 17.503906 C 20.429688 17.503906 24.167969 13.761719 24.167969 9.167969 C 24.167969 4.570312 20.429688 0.832031 15.832031 0.832031 Z M 15.832031 0.832031 "/>
<path style=" stroke:none;fill-rule:nonzero;fill:rgb(0%,0%,0%);fill-opacity:1;" d="M 15.835938 16.664062 C 15.796875 16.664062 15.761719 16.664062 15.730469 16.664062 C 15.683594 16.664062 15.640625 16.65625 15.597656 16.640625 C 15.554688 16.652344 15.511719 16.660156 15.464844 16.65625 C 15.429688 16.65625 15.394531 16.652344 15.363281 16.652344 C 15.316406 16.648438 15.273438 16.636719 15.230469 16.621094 C 15.191406 16.632812 15.144531 16.632812 15.097656 16.628906 C 15.0625 16.625 15.03125 16.621094 14.996094 16.617188 C 14.949219 16.613281 14.90625 16.601562 14.867188 16.582031 C 14.824219 16.589844 14.78125 16.589844 14.734375 16.585938 C 14.699219 16.578125 14.664062 16.574219 14.628906 16.570312 C 14.585938 16.5625 14.542969 16.546875 14.503906 16.527344 C 14.460938 16.53125 14.417969 16.53125 14.371094 16.523438 C 14.335938 16.515625 14.304688 16.507812 14.269531 16.5 C 14.222656 16.492188 14.183594 16.476562 14.144531 16.453125 C 14.101562 16.457031 14.058594 16.453125 14.011719 16.441406 C 13.980469 16.433594 13.945312 16.425781 13.910156 16.414062 C 13.867188 16.402344 13.824219 16.386719 13.789062 16.363281 C 13.746094 16.363281 13.703125 16.355469 13.65625 16.34375 C 13.625 16.332031 13.589844 16.324219 13.558594 16.3125 C 13.511719 16.296875 13.472656 16.277344 13.4375 16.253906 C 13.394531 16.25 13.351562 16.242188 13.308594 16.226562 C 13.273438 16.214844 13.242188 16.203125 13.207031 16.191406 C 13.164062 16.175781 13.125 16.152344 13.09375 16.125 C 13.050781 16.121094 13.003906 16.113281 12.964844 16.09375 C 12.929688 16.082031 12.898438 16.066406 12.867188 16.054688 C 12.824219 16.035156 12.785156 16.011719 12.753906 15.980469 C 12.710938 15.976562 12.667969 15.964844 12.625 15.945312 C 12.59375 15.929688 12.5625 15.914062 12.53125 15.898438 C 12.492188 15.878906 12.453125 15.851562 12.421875 15.820312 C 12.378906 15.8125 12.335938 15.800781 12.296875 15.777344 C 12.265625 15.761719 12.234375 15.746094 12.203125 15.726562 C 12.164062 15.707031 12.128906 15.675781 12.101562 15.644531 C 12.058594 15.636719 12.015625 15.621094 11.976562 15.597656 C 11.945312 15.578125 11.917969 15.558594 11.886719 15.542969 C 11.847656 15.515625 11.816406 15.488281 11.785156 15.453125 C 11.746094 15.441406 11.703125 15.425781 11.667969 15.398438 C 11.636719 15.378906 11.609375 15.359375 11.578125 15.339844 C 11.542969 15.3125 11.507812 15.28125 11.484375 15.246094 C 11.441406 15.234375 11.402344 15.214844 11.367188 15.1875 C 11.335938 15.164062 11.308594 15.144531 11.28125 15.121094 C 11.246094 15.09375 11.214844 15.0625 11.191406 15.027344 C 11.148438 15.011719 11.109375 14.988281 11.074219 14.960938 C 11.046875 14.9375 11.023438 14.914062 10.996094 14.890625 C 10.960938 14.863281 10.929688 14.828125 10.910156 14.792969 C 10.867188 14.773438 10.832031 14.75 10.796875 14.71875 C 10.769531 14.695312 10.746094 14.671875 10.71875 14.648438 C 10.6875 14.617188 10.660156 14.582031 10.640625 14.542969 C 10.601562 14.523438 10.5625 14.496094 10.53125 14.464844 C 10.507812 14.441406 10.480469 14.414062 10.457031 14.390625 C 10.425781 14.355469 10.398438 14.320312 10.382812 14.28125 C 10.34375 14.261719 10.308594 14.234375 10.277344 14.199219 C 10.253906 14.171875 10.230469 14.148438 10.207031 14.121094 C 10.175781 14.085938 10.152344 14.046875 10.136719 14.007812 C 10.101562 13.984375 10.066406 13.957031 10.039062 13.921875 C 10.015625 13.894531 9.992188 13.867188 9.972656 13.839844 C 9.945312 13.804688 9.921875 13.765625 9.90625 13.722656 C 9.871094 13.699219 9.839844 13.667969 9.8125 13.632812 C 9.789062 13.601562 9.769531 13.574219 9.75 13.546875 C 9.722656 13.507812 9.703125 13.46875 9.691406 13.429688 C 9.65625 13.402344 9.625 13.367188 9.601562 13.332031 C 9.582031 13.300781 9.5625 13.273438 9.542969 13.242188 C 9.515625 13.207031 9.5 13.164062 9.488281 13.121094 C 9.457031 13.09375 9.425781 13.058594 9.402344 13.019531 C 9.382812 12.992188 9.367188 12.960938 9.347656 12.929688 C 9.328125 12.890625 9.3125 12.851562 9.300781 12.808594 C 9.269531 12.777344 9.242188 12.742188 9.222656 12.703125 C 9.203125 12.671875 9.1875 12.640625 9.171875 12.609375 C 9.152344 12.570312 9.136719 12.527344 9.128906 12.484375 C 9.101562 12.453125 9.074219 12.414062 9.054688 12.375 C 9.039062 12.34375 9.027344 12.3125 9.011719 12.28125 C 8.992188 12.238281 8.980469 12.195312 8.976562 12.152344 C 8.949219 12.121094 8.925781 12.082031 8.90625 12.039062 C 8.894531 12.007812 8.878906 11.976562 8.867188 11.941406 C 8.851562 11.898438 8.839844 11.855469 8.839844 11.8125 C 8.8125 11.777344 8.789062 11.738281 8.773438 11.695312 C 8.761719 11.664062 8.75 11.628906 8.738281 11.597656 C 8.722656 11.554688 8.714844 11.511719 8.714844 11.464844 C 8.691406 11.429688 8.671875 11.390625 8.65625 11.347656 C 8.648438 11.3125 8.636719 11.28125 8.628906 11.246094 C 8.613281 11.203125 8.609375 11.160156 8.613281 11.113281 C 8.589844 11.078125 8.570312 11.039062 8.558594 10.992188 C 8.550781 10.957031 8.542969 10.925781 8.535156 10.890625 C 8.523438 10.847656 8.519531 10.800781 8.523438 10.757812 C 8.503906 10.71875 8.488281 10.679688 8.480469 10.632812 C 8.472656 10.597656 8.464844 10.566406 8.457031 10.53125 C 8.449219 10.484375 8.449219 10.441406 8.457031 10.398438 C 8.4375 10.359375 8.421875 10.316406 8.414062 10.269531 C 8.410156 10.238281 8.40625 10.203125 8.402344 10.167969 C 8.394531 10.121094 8.398438 10.078125 8.40625 10.035156 C 8.386719 9.996094 8.375 9.953125 8.371094 9.90625 C 8.367188 9.871094 8.363281 9.835938 8.359375 9.800781 C 8.355469 9.753906 8.359375 9.710938 8.371094 9.667969 C 8.355469 9.628906 8.347656 9.585938 8.34375 9.539062 C 8.34375 9.503906 8.339844 9.46875 8.339844 9.433594 C 8.335938 9.386719 8.34375 9.34375 8.355469 9.300781 C 8.34375 9.261719 8.335938 9.21875 8.335938 9.171875 L 8.421875 9.171875 L 8.335938 9.171875 C 8.335938 9.132812 8.335938 9.101562 8.335938 9.066406 C 8.335938 9.019531 8.34375 8.976562 8.359375 8.9375 C 8.347656 8.894531 8.339844 8.851562 8.34375 8.804688 C 8.34375 8.769531 8.347656 8.734375 8.347656 8.699219 C 8.351562 8.652344 8.363281 8.609375 8.378906 8.570312 C 8.367188 8.527344 8.367188 8.484375 8.371094 8.4375 C 8.371094 8.402344 8.375 8.367188 8.378906 8.332031 C 8.386719 8.289062 8.398438 8.246094 8.414062 8.203125 C 8.410156 8.160156 8.40625 8.117188 8.414062 8.070312 C 8.417969 8.039062 8.425781 8.003906 8.429688 7.96875 C 8.4375 7.921875 8.453125 7.878906 8.472656 7.84375 C 8.464844 7.800781 8.46875 7.753906 8.476562 7.710938 C 8.484375 7.675781 8.492188 7.640625 8.496094 7.605469 C 8.507812 7.5625 8.523438 7.519531 8.546875 7.484375 C 8.542969 7.4375 8.546875 7.394531 8.558594 7.351562 C 8.566406 7.316406 8.574219 7.28125 8.582031 7.25 C 8.59375 7.203125 8.613281 7.164062 8.636719 7.128906 C 8.636719 7.082031 8.640625 7.039062 8.65625 6.996094 C 8.664062 6.960938 8.675781 6.929688 8.6875 6.894531 C 8.699219 6.851562 8.71875 6.8125 8.746094 6.777344 C 8.746094 6.734375 8.753906 6.6875 8.769531 6.644531 C 8.78125 6.613281 8.792969 6.578125 8.808594 6.546875 C 8.824219 6.503906 8.84375 6.464844 8.871094 6.429688 C 8.875 6.386719 8.886719 6.34375 8.902344 6.300781 C 8.917969 6.269531 8.929688 6.234375 8.945312 6.203125 C 8.960938 6.160156 8.988281 6.125 9.015625 6.089844 C 9.019531 6.046875 9.035156 6.003906 9.054688 5.964844 C 9.070312 5.933594 9.082031 5.902344 9.097656 5.867188 C 9.121094 5.828125 9.144531 5.792969 9.175781 5.761719 C 9.183594 5.71875 9.199219 5.675781 9.21875 5.636719 C 9.234375 5.605469 9.253906 5.574219 9.269531 5.542969 C 9.292969 5.503906 9.320312 5.46875 9.351562 5.4375 C 9.363281 5.394531 9.378906 5.351562 9.402344 5.3125 C 9.417969 5.285156 9.4375 5.253906 9.457031 5.226562 C 9.480469 5.1875 9.511719 5.152344 9.542969 5.125 C 9.554688 5.082031 9.574219 5.042969 9.597656 5.003906 C 9.617188 4.972656 9.636719 4.945312 9.65625 4.917969 C 9.683594 4.878906 9.714844 4.847656 9.75 4.820312 C 9.761719 4.777344 9.785156 4.738281 9.8125 4.703125 C 9.832031 4.675781 9.851562 4.644531 9.875 4.617188 C 9.902344 4.582031 9.933594 4.550781 9.972656 4.527344 C 9.984375 4.488281 10.007812 4.449219 10.039062 4.414062 C 10.058594 4.386719 10.082031 4.359375 10.105469 4.332031 C 10.132812 4.296875 10.167969 4.269531 10.207031 4.246094 C 10.222656 4.207031 10.246094 4.167969 10.277344 4.132812 C 10.300781 4.109375 10.324219 4.082031 10.347656 4.058594 C 10.378906 4.023438 10.414062 3.996094 10.453125 3.976562 C 10.472656 3.9375 10.5 3.898438 10.53125 3.867188 C 10.554688 3.84375 10.582031 3.820312 10.605469 3.792969 C 10.640625 3.761719 10.675781 3.738281 10.714844 3.71875 C 10.734375 3.679688 10.761719 3.644531 10.796875 3.613281 C 10.824219 3.589844 10.851562 3.566406 10.875 3.542969 C 10.910156 3.515625 10.949219 3.492188 10.988281 3.472656 C 11.011719 3.4375 11.039062 3.402344 11.074219 3.375 C 11.101562 3.351562 11.128906 3.328125 11.15625 3.308594 C 11.191406 3.277344 11.230469 3.257812 11.273438 3.242188 C 11.296875 3.207031 11.328125 3.175781 11.363281 3.148438 C 11.394531 3.125 11.421875 3.105469 11.449219 3.085938 C 11.488281 3.058594 11.527344 3.039062 11.566406 3.027344 C 11.59375 2.992188 11.625 2.960938 11.664062 2.933594 C 11.695312 2.917969 11.722656 2.898438 11.753906 2.878906 C 11.789062 2.851562 11.832031 2.835938 11.875 2.824219 C 11.902344 2.789062 11.933594 2.761719 11.972656 2.738281 C 12.003906 2.71875 12.035156 2.703125 12.066406 2.683594 C 12.105469 2.660156 12.144531 2.644531 12.1875 2.636719 C 12.21875 2.605469 12.253906 2.578125 12.292969 2.554688 C 12.324219 2.539062 12.355469 2.523438 12.386719 2.507812 C 12.425781 2.488281 12.46875 2.472656 12.511719 2.464844 C 12.542969 2.4375 12.578125 2.410156 12.621094 2.390625 C 12.652344 2.375 12.683594 2.359375 12.714844 2.347656 C 12.757812 2.328125 12.800781 2.316406 12.84375 2.3125 C 12.875 2.28125 12.914062 2.257812 12.957031 2.242188 C 12.988281 2.226562 13.019531 2.214844 13.054688 2.203125 C 13.09375 2.183594 13.140625 2.175781 13.183594 2.171875 C 13.214844 2.144531 13.253906 2.125 13.296875 2.109375 C 13.332031 2.097656 13.363281 2.085938 13.398438 2.074219 C 13.441406 2.058594 13.484375 2.050781 13.527344 2.050781 C 13.5625 2.027344 13.605469 2.003906 13.648438 1.992188 C 13.679688 1.980469 13.714844 1.972656 13.75 1.960938 C 13.792969 1.949219 13.835938 1.945312 13.878906 1.945312 C 13.917969 1.921875 13.957031 1.90625 14.003906 1.894531 C 14.035156 1.882812 14.070312 1.875 14.105469 1.867188 C 14.148438 1.859375 14.195312 1.855469 14.238281 1.859375 C 14.273438 1.835938 14.316406 1.820312 14.363281 1.8125 C 14.394531 1.804688 14.429688 1.796875 14.464844 1.792969 C 14.511719 1.785156 14.554688 1.785156 14.597656 1.789062 C 14.636719 1.769531 14.679688 1.753906 14.722656 1.75 C 14.757812 1.742188 14.792969 1.738281 14.828125 1.734375 C 14.875 1.726562 14.917969 1.730469 14.960938 1.738281 C 15 1.71875 15.042969 1.707031 15.089844 1.703125 C 15.125 1.699219 15.160156 1.695312 15.195312 1.695312 C 15.238281 1.691406 15.285156 1.695312 15.324219 1.703125 C 15.367188 1.6875 15.410156 1.679688 15.457031 1.675781 C 15.492188 1.675781 15.527344 1.671875 15.5625 1.671875 C 15.605469 1.671875 15.652344 1.675781 15.691406 1.6875 C 15.734375 1.675781 15.777344 1.667969 15.824219 1.667969 L 15.832031 1.667969 C 15.867188 1.667969 15.898438 1.667969 15.929688 1.667969 C 15.972656 1.667969 16.019531 1.675781 16.058594 1.691406 C 16.101562 1.679688 16.144531 1.671875 16.191406 1.675781 C 16.226562 1.675781 16.261719 1.679688 16.296875 1.679688 C 16.339844 1.683594 16.386719 1.695312 16.425781 1.710938 C 16.46875 1.699219 16.511719 1.699219 16.558594 1.703125 C 16.59375 1.707031 16.628906 1.707031 16.664062 1.710938 C 16.707031 1.71875 16.75 1.730469 16.789062 1.746094 C 16.832031 1.742188 16.878906 1.738281 16.921875 1.746094 C 16.957031 1.75 16.992188 1.757812 17.027344 1.761719 C 17.070312 1.769531 17.113281 1.785156 17.152344 1.804688 C 17.195312 1.796875 17.242188 1.800781 17.285156 1.808594 C 17.320312 1.816406 17.355469 1.820312 17.386719 1.828125 C 17.433594 1.839844 17.476562 1.855469 17.511719 1.878906 C 17.554688 1.875 17.601562 1.878906 17.644531 1.886719 C 17.679688 1.898438 17.710938 1.90625 17.746094 1.914062 C 17.789062 1.925781 17.832031 1.945312 17.867188 1.96875 C 17.910156 1.96875 17.957031 1.972656 18 1.984375 C 18.035156 1.996094 18.066406 2.007812 18.101562 2.015625 C 18.144531 2.03125 18.183594 2.050781 18.21875 2.078125 C 18.261719 2.078125 18.308594 2.085938 18.351562 2.101562 C 18.382812 2.113281 18.417969 2.125 18.449219 2.136719 C 18.492188 2.152344 18.53125 2.175781 18.566406 2.203125 C 18.609375 2.207031 18.652344 2.214844 18.695312 2.234375 C 18.726562 2.246094 18.757812 2.261719 18.792969 2.273438 C 18.832031 2.292969 18.871094 2.316406 18.902344 2.347656 C 18.949219 2.351562 18.992188 2.363281 19.03125 2.382812 C 19.0625 2.398438 19.09375 2.414062 19.125 2.429688 C 19.167969 2.449219 19.203125 2.476562 19.234375 2.507812 C 19.277344 2.511719 19.320312 2.527344 19.359375 2.550781 C 19.390625 2.566406 19.421875 2.582031 19.453125 2.601562 C 19.492188 2.621094 19.527344 2.648438 19.558594 2.683594 C 19.601562 2.691406 19.640625 2.707031 19.679688 2.730469 C 19.710938 2.75 19.742188 2.769531 19.769531 2.785156 C 19.808594 2.808594 19.84375 2.839844 19.871094 2.875 C 19.914062 2.886719 19.953125 2.902344 19.992188 2.929688 C 20.023438 2.949219 20.050781 2.96875 20.078125 2.988281 C 20.117188 3.015625 20.148438 3.042969 20.175781 3.078125 C 20.21875 3.09375 20.257812 3.113281 20.292969 3.140625 C 20.320312 3.160156 20.351562 3.183594 20.378906 3.203125 C 20.414062 3.230469 20.445312 3.265625 20.46875 3.300781 C 20.507812 3.316406 20.546875 3.335938 20.582031 3.367188 C 20.609375 3.390625 20.636719 3.410156 20.664062 3.433594 C 20.699219 3.464844 20.726562 3.496094 20.75 3.535156 C 20.789062 3.550781 20.828125 3.578125 20.863281 3.605469 C 20.886719 3.628906 20.914062 3.652344 20.941406 3.679688 C 20.972656 3.710938 21 3.746094 21.019531 3.78125 C 21.058594 3.800781 21.097656 3.828125 21.128906 3.859375 C 21.152344 3.886719 21.179688 3.910156 21.203125 3.933594 C 21.234375 3.96875 21.261719 4.003906 21.277344 4.042969 C 21.316406 4.066406 21.351562 4.09375 21.382812 4.125 C 21.40625 4.152344 21.429688 4.179688 21.453125 4.203125 C 21.484375 4.238281 21.507812 4.277344 21.523438 4.316406 C 21.558594 4.339844 21.59375 4.367188 21.621094 4.402344 C 21.644531 4.429688 21.667969 4.457031 21.6875 4.484375 C 21.71875 4.519531 21.738281 4.558594 21.753906 4.601562 C 21.789062 4.625 21.824219 4.65625 21.851562 4.695312 C 21.871094 4.722656 21.890625 4.75 21.910156 4.777344 C 21.9375 4.816406 21.957031 4.855469 21.972656 4.894531 C 22.007812 4.921875 22.035156 4.957031 22.0625 4.992188 C 22.082031 5.023438 22.101562 5.050781 22.121094 5.082031 C 22.144531 5.117188 22.164062 5.160156 22.171875 5.203125 C 22.207031 5.230469 22.234375 5.261719 22.257812 5.304688 C 22.277344 5.332031 22.296875 5.363281 22.3125 5.394531 C 22.335938 5.433594 22.351562 5.472656 22.359375 5.515625 C 22.390625 5.546875 22.417969 5.582031 22.441406 5.621094 C 22.457031 5.652344 22.472656 5.683594 22.492188 5.714844 C 22.511719 5.753906 22.527344 5.796875 22.53125 5.839844 C 22.5625 5.871094 22.585938 5.90625 22.605469 5.949219 C 22.621094 5.980469 22.636719 6.011719 22.652344 6.042969 C 22.671875 6.085938 22.683594 6.128906 22.6875 6.171875 C 22.714844 6.203125 22.738281 6.242188 22.757812 6.285156 C 22.769531 6.316406 22.785156 6.347656 22.796875 6.378906 C 22.8125 6.421875 22.824219 6.46875 22.828125 6.511719 C 22.851562 6.542969 22.875 6.582031 22.890625 6.625 C 22.902344 6.660156 22.914062 6.691406 22.925781 6.726562 C 22.941406 6.769531 22.949219 6.8125 22.949219 6.855469 C 22.972656 6.890625 22.992188 6.933594 23.007812 6.976562 C 23.015625 7.007812 23.027344 7.042969 23.039062 7.078125 C 23.050781 7.121094 23.054688 7.164062 23.054688 7.207031 C 23.078125 7.246094 23.09375 7.285156 23.105469 7.332031 C 23.113281 7.363281 23.121094 7.398438 23.132812 7.433594 C 23.140625 7.476562 23.144531 7.523438 23.140625 7.566406 C 23.164062 7.601562 23.179688 7.644531 23.1875 7.6875 C 23.195312 7.722656 23.199219 7.757812 23.207031 7.792969 C 23.214844 7.835938 23.214844 7.882812 23.210938 7.925781 C 23.230469 7.964844 23.242188 8.007812 23.25 8.050781 C 23.257812 8.085938 23.261719 8.121094 23.265625 8.15625 C 23.273438 8.203125 23.269531 8.246094 23.261719 8.289062 C 23.28125 8.328125 23.292969 8.371094 23.296875 8.417969 C 23.300781 8.453125 23.304688 8.484375 23.304688 8.519531 C 23.308594 8.566406 23.304688 8.613281 23.296875 8.652344 C 23.3125 8.695312 23.320312 8.738281 23.324219 8.785156 C 23.324219 8.816406 23.328125 8.851562 23.328125 8.886719 C 23.332031 8.933594 23.324219 8.976562 23.3125 9.019531 C 23.324219 9.0625 23.332031 9.105469 23.332031 9.152344 L 23.332031 9.167969 C 23.332031 9.195312 23.332031 9.226562 23.332031 9.257812 C 23.332031 9.300781 23.324219 9.34375 23.308594 9.386719 C 23.320312 9.429688 23.328125 9.472656 23.324219 9.519531 C 23.324219 9.554688 23.320312 9.589844 23.320312 9.625 C 23.316406 9.667969 23.308594 9.710938 23.289062 9.753906 C 23.300781 9.796875 23.304688 9.839844 23.300781 9.886719 C 23.296875 9.921875 23.292969 9.953125 23.289062 9.988281 C 23.285156 10.035156 23.273438 10.078125 23.253906 10.117188 C 23.261719 10.160156 23.261719 10.207031 23.253906 10.25 C 23.25 10.285156 23.246094 10.320312 23.238281 10.355469 C 23.234375 10.398438 23.21875 10.441406 23.199219 10.480469 C 23.203125 10.523438 23.203125 10.566406 23.195312 10.613281 C 23.1875 10.648438 23.179688 10.683594 23.171875 10.714844 C 23.164062 10.761719 23.148438 10.800781 23.125 10.839844 C 23.128906 10.882812 23.125 10.929688 23.113281 10.972656 C 23.105469 11.007812 23.097656 11.039062 23.085938 11.074219 C 23.074219 11.117188 23.058594 11.160156 23.035156 11.195312 C 23.035156 11.238281 23.03125 11.285156 23.015625 11.328125 C 23.007812 11.359375 22.996094 11.394531 22.984375 11.429688 C 22.972656 11.472656 22.949219 11.511719 22.925781 11.546875 C 22.925781 11.589844 22.917969 11.636719 22.902344 11.679688 C 22.890625 11.710938 22.878906 11.742188 22.863281 11.777344 C 22.847656 11.820312 22.828125 11.859375 22.800781 11.894531 C 22.796875 11.9375 22.785156 11.980469 22.769531 12.023438 C 22.753906 12.054688 22.742188 12.085938 22.726562 12.121094 C 22.710938 12.160156 22.683594 12.199219 22.65625 12.230469 C 22.652344 12.273438 22.640625 12.316406 22.621094 12.359375 C 22.605469 12.390625 22.589844 12.421875 22.574219 12.453125 C 22.554688 12.496094 22.527344 12.53125 22.496094 12.5625 C 22.488281 12.605469 22.476562 12.648438 22.453125 12.6875 C 22.4375 12.71875 22.421875 12.75 22.402344 12.78125 C 22.382812 12.820312 22.351562 12.855469 22.320312 12.886719 C 22.3125 12.929688 22.296875 12.96875 22.273438 13.007812 C 22.253906 13.039062 22.234375 13.070312 22.21875 13.101562 C 22.191406 13.140625 22.164062 13.171875 22.128906 13.199219 C 22.117188 13.242188 22.101562 13.28125 22.074219 13.320312 C 22.054688 13.351562 22.035156 13.378906 22.015625 13.40625 C 21.988281 13.445312 21.960938 13.476562 21.925781 13.503906 C 21.910156 13.546875 21.890625 13.585938 21.863281 13.621094 C 21.84375 13.648438 21.820312 13.679688 21.800781 13.707031 C 21.773438 13.742188 21.738281 13.773438 21.703125 13.796875 C 21.6875 13.839844 21.667969 13.875 21.636719 13.914062 C 21.613281 13.9375 21.59375 13.964844 21.570312 13.992188 C 21.539062 14.027344 21.507812 14.058594 21.46875 14.078125 C 21.453125 14.121094 21.429688 14.15625 21.398438 14.191406 C 21.375 14.21875 21.351562 14.242188 21.324219 14.269531 C 21.296875 14.300781 21.257812 14.328125 21.222656 14.351562 C 21.203125 14.390625 21.175781 14.425781 21.144531 14.457031 C 21.121094 14.484375 21.09375 14.507812 21.070312 14.53125 C 21.035156 14.5625 21 14.589844 20.960938 14.609375 C 20.941406 14.644531 20.914062 14.679688 20.878906 14.710938 C 20.851562 14.734375 20.828125 14.757812 20.800781 14.78125 C 20.765625 14.8125 20.726562 14.835938 20.6875 14.851562 C 20.664062 14.890625 20.636719 14.921875 20.601562 14.953125 C 20.574219 14.976562 20.546875 14.996094 20.519531 15.019531 C 20.484375 15.046875 20.445312 15.070312 20.402344 15.085938 C 20.378906 15.121094 20.347656 15.152344 20.3125 15.179688 C 20.285156 15.199219 20.253906 15.222656 20.226562 15.242188 C 20.191406 15.269531 20.148438 15.289062 20.109375 15.300781 C 20.082031 15.335938 20.050781 15.367188 20.011719 15.390625 C 19.984375 15.410156 19.953125 15.429688 19.925781 15.449219 C 19.886719 15.476562 19.84375 15.492188 19.804688 15.503906 C 19.777344 15.535156 19.742188 15.566406 19.703125 15.589844 C 19.671875 15.609375 19.640625 15.625 19.613281 15.644531 C 19.574219 15.667969 19.53125 15.683594 19.488281 15.691406 C 19.460938 15.722656 19.425781 15.75 19.382812 15.773438 C 19.351562 15.789062 19.324219 15.804688 19.292969 15.820312 C 19.25 15.84375 19.207031 15.855469 19.164062 15.863281 C 19.132812 15.890625 19.097656 15.917969 19.054688 15.9375 C 19.023438 15.953125 18.992188 15.96875 18.960938 15.984375 C 18.921875 16 18.878906 16.011719 18.835938 16.019531 C 18.800781 16.046875 18.765625 16.070312 18.722656 16.085938 C 18.691406 16.101562 18.65625 16.113281 18.625 16.128906 C 18.582031 16.144531 18.539062 16.152344 18.496094 16.15625 C 18.460938 16.183594 18.421875 16.207031 18.378906 16.222656 C 18.347656 16.234375 18.3125 16.246094 18.28125 16.257812 C 18.238281 16.273438 18.191406 16.277344 18.148438 16.28125 C 18.113281 16.304688 18.074219 16.324219 18.03125 16.339844 C 17.996094 16.347656 17.960938 16.359375 17.929688 16.367188 C 17.886719 16.382812 17.839844 16.386719 17.796875 16.382812 C 17.761719 16.40625 17.71875 16.425781 17.675781 16.4375 C 17.640625 16.445312 17.609375 16.453125 17.574219 16.460938 C 17.527344 16.472656 17.484375 16.476562 17.441406 16.472656 C 17.402344 16.492188 17.363281 16.507812 17.316406 16.519531 C 17.28125 16.527344 17.25 16.53125 17.214844 16.539062 C 17.167969 16.546875 17.125 16.546875 17.082031 16.542969 C 17.042969 16.5625 17 16.574219 16.953125 16.582031 C 16.917969 16.585938 16.886719 16.59375 16.851562 16.597656 C 16.804688 16.605469 16.761719 16.601562 16.71875 16.59375 C 16.679688 16.613281 16.636719 16.625 16.589844 16.628906 C 16.554688 16.632812 16.519531 16.636719 16.484375 16.636719 C 16.4375 16.640625 16.394531 16.636719 16.351562 16.628906 C 16.3125 16.644531 16.269531 16.652344 16.222656 16.65625 C 16.1875 16.65625 16.152344 16.660156 16.117188 16.660156 C 16.074219 16.664062 16.027344 16.65625 15.984375 16.644531 C 15.945312 16.660156 15.898438 16.664062 15.855469 16.664062 Z M 15.855469 15.835938 C 15.894531 15.835938 15.933594 15.839844 15.96875 15.851562 C 16.007812 15.839844 16.046875 15.832031 16.085938 15.832031 C 16.117188 15.828125 16.148438 15.828125 16.179688 15.828125 C 16.21875 15.824219 16.261719 15.828125 16.296875 15.835938 C 16.332031 15.824219 16.371094 15.8125 16.414062 15.808594 C 16.445312 15.808594 16.476562 15.804688 16.507812 15.800781 C 16.546875 15.796875 16.585938 15.800781 16.625 15.808594 C 16.660156 15.792969 16.699219 15.78125 16.738281 15.773438 C 16.769531 15.769531 16.800781 15.765625 16.832031 15.761719 C 16.871094 15.753906 16.910156 15.753906 16.949219 15.761719 C 16.984375 15.742188 17.019531 15.730469 17.0625 15.722656 C 17.089844 15.714844 17.121094 15.710938 17.152344 15.703125 C 17.191406 15.695312 17.230469 15.695312 17.269531 15.699219 C 17.304688 15.679688 17.339844 15.664062 17.378906 15.65625 C 17.410156 15.648438 17.441406 15.640625 17.472656 15.632812 C 17.511719 15.621094 17.550781 15.617188 17.589844 15.621094 C 17.621094 15.597656 17.65625 15.582031 17.695312 15.570312 C 17.726562 15.5625 17.757812 15.554688 17.785156 15.542969 C 17.824219 15.53125 17.863281 15.527344 17.902344 15.527344 C 17.933594 15.503906 17.96875 15.484375 18.007812 15.472656 C 18.039062 15.460938 18.066406 15.449219 18.097656 15.441406 C 18.132812 15.425781 18.171875 15.417969 18.210938 15.417969 C 18.242188 15.390625 18.277344 15.371094 18.316406 15.355469 C 18.34375 15.34375 18.371094 15.332031 18.402344 15.320312 C 18.4375 15.304688 18.476562 15.296875 18.515625 15.292969 C 18.542969 15.265625 18.578125 15.246094 18.613281 15.226562 C 18.640625 15.214844 18.671875 15.203125 18.699219 15.1875 C 18.734375 15.171875 18.773438 15.160156 18.8125 15.152344 C 18.839844 15.125 18.871094 15.101562 18.90625 15.085938 C 18.933594 15.070312 18.960938 15.054688 18.988281 15.039062 C 19.023438 15.019531 19.0625 15.007812 19.101562 15 C 19.125 14.972656 19.15625 14.945312 19.191406 14.925781 C 19.21875 14.910156 19.246094 14.894531 19.273438 14.878906 C 19.308594 14.859375 19.34375 14.84375 19.382812 14.832031 C 19.40625 14.804688 19.4375 14.777344 19.46875 14.753906 C 19.496094 14.738281 19.523438 14.71875 19.546875 14.703125 C 19.582031 14.679688 19.617188 14.664062 19.65625 14.652344 C 19.679688 14.621094 19.707031 14.59375 19.738281 14.570312 C 19.765625 14.550781 19.789062 14.53125 19.816406 14.515625 C 19.847656 14.488281 19.882812 14.46875 19.917969 14.457031 C 19.941406 14.425781 19.96875 14.398438 20 14.371094 C 20.023438 14.351562 20.046875 14.332031 20.070312 14.3125 C 20.101562 14.285156 20.136719 14.265625 20.171875 14.25 C 20.195312 14.21875 20.21875 14.1875 20.25 14.160156 C 20.273438 14.140625 20.296875 14.117188 20.320312 14.097656 C 20.347656 14.070312 20.382812 14.046875 20.417969 14.03125 C 20.4375 13.996094 20.460938 13.964844 20.488281 13.9375 C 20.511719 13.914062 20.535156 13.894531 20.554688 13.871094 C 20.585938 13.84375 20.617188 13.820312 20.648438 13.800781 C 20.667969 13.765625 20.691406 13.734375 20.71875 13.703125 C 20.738281 13.679688 20.761719 13.65625 20.78125 13.632812 C 20.808594 13.605469 20.839844 13.578125 20.871094 13.558594 C 20.886719 13.523438 20.910156 13.488281 20.933594 13.457031 C 20.953125 13.433594 20.976562 13.410156 20.996094 13.386719 C 21.019531 13.355469 21.050781 13.328125 21.082031 13.304688 C 21.097656 13.269531 21.113281 13.234375 21.140625 13.203125 C 21.160156 13.175781 21.175781 13.152344 21.195312 13.128906 C 21.21875 13.09375 21.25 13.066406 21.277344 13.042969 C 21.292969 13.007812 21.308594 12.96875 21.332031 12.9375 C 21.347656 12.910156 21.367188 12.886719 21.382812 12.859375 C 21.40625 12.824219 21.433594 12.796875 21.464844 12.769531 C 21.472656 12.734375 21.488281 12.695312 21.511719 12.664062 C 21.527344 12.636719 21.542969 12.609375 21.558594 12.582031 C 21.582031 12.546875 21.605469 12.515625 21.632812 12.492188 C 21.644531 12.453125 21.65625 12.414062 21.675781 12.378906 C 21.691406 12.351562 21.707031 12.324219 21.722656 12.296875 C 21.738281 12.261719 21.765625 12.230469 21.792969 12.203125 C 21.796875 12.164062 21.808594 12.125 21.828125 12.089844 C 21.839844 12.0625 21.855469 12.03125 21.867188 12.003906 C 21.886719 11.96875 21.90625 11.933594 21.933594 11.90625 C 21.9375 11.867188 21.949219 11.828125 21.964844 11.792969 C 21.976562 11.761719 21.988281 11.734375 22 11.703125 C 22.015625 11.667969 22.035156 11.632812 22.0625 11.601562 C 22.0625 11.5625 22.074219 11.527344 22.085938 11.488281 C 22.097656 11.457031 22.109375 11.429688 22.117188 11.398438 C 22.132812 11.359375 22.152344 11.324219 22.171875 11.292969 C 22.175781 11.253906 22.179688 11.214844 22.191406 11.175781 C 22.203125 11.148438 22.210938 11.117188 22.222656 11.085938 C 22.234375 11.046875 22.25 11.011719 22.269531 10.980469 C 22.269531 10.941406 22.273438 10.902344 22.285156 10.863281 C 22.292969 10.832031 22.300781 10.800781 22.308594 10.773438 C 22.316406 10.734375 22.332031 10.695312 22.351562 10.664062 C 22.347656 10.625 22.351562 10.585938 22.359375 10.542969 C 22.367188 10.515625 22.371094 10.484375 22.378906 10.453125 C 22.386719 10.414062 22.398438 10.375 22.417969 10.339844 C 22.414062 10.300781 22.414062 10.261719 22.417969 10.222656 C 22.425781 10.191406 22.429688 10.160156 22.433594 10.128906 C 22.4375 10.089844 22.449219 10.050781 22.46875 10.015625 C 22.460938 9.980469 22.457031 9.9375 22.464844 9.898438 C 22.464844 9.867188 22.46875 9.835938 22.472656 9.804688 C 22.476562 9.765625 22.484375 9.726562 22.5 9.691406 C 22.492188 9.652344 22.488281 9.613281 22.492188 9.574219 C 22.492188 9.542969 22.496094 9.511719 22.496094 9.480469 C 22.496094 9.4375 22.503906 9.398438 22.519531 9.363281 C 22.507812 9.324219 22.503906 9.285156 22.503906 9.246094 C 22.503906 9.21875 22.503906 9.191406 22.503906 9.167969 L 22.503906 9.152344 C 22.503906 9.109375 22.507812 9.070312 22.519531 9.035156 C 22.507812 8.996094 22.5 8.960938 22.5 8.917969 C 22.496094 8.886719 22.496094 8.855469 22.496094 8.824219 C 22.492188 8.785156 22.496094 8.746094 22.503906 8.707031 C 22.492188 8.671875 22.480469 8.632812 22.480469 8.59375 C 22.476562 8.5625 22.472656 8.53125 22.46875 8.5 C 22.464844 8.457031 22.46875 8.417969 22.476562 8.378906 C 22.460938 8.34375 22.449219 8.304688 22.441406 8.265625 C 22.4375 8.234375 22.433594 8.203125 22.429688 8.175781 C 22.421875 8.132812 22.421875 8.09375 22.429688 8.054688 C 22.410156 8.019531 22.398438 7.984375 22.390625 7.945312 C 22.386719 7.914062 22.378906 7.882812 22.371094 7.851562 C 22.363281 7.8125 22.363281 7.773438 22.367188 7.734375 C 22.347656 7.699219 22.332031 7.664062 22.324219 7.625 C 22.316406 7.59375 22.308594 7.5625 22.300781 7.53125 C 22.289062 7.492188 22.285156 7.453125 22.289062 7.414062 C 22.265625 7.382812 22.25 7.347656 22.238281 7.308594 C 22.230469 7.277344 22.222656 7.246094 22.210938 7.21875 C 22.199219 7.179688 22.195312 7.140625 22.195312 7.101562 C 22.171875 7.070312 22.152344 7.035156 22.140625 6.996094 C 22.128906 6.964844 22.121094 6.9375 22.109375 6.90625 C 22.09375 6.871094 22.085938 6.832031 22.085938 6.792969 C 22.0625 6.761719 22.042969 6.726562 22.027344 6.691406 C 22.015625 6.660156 22.003906 6.632812 21.992188 6.601562 C 21.976562 6.566406 21.964844 6.527344 21.960938 6.488281 C 21.9375 6.460938 21.914062 6.425781 21.898438 6.390625 C 21.882812 6.363281 21.871094 6.332031 21.859375 6.304688 C 21.839844 6.269531 21.828125 6.230469 21.824219 6.191406 C 21.796875 6.164062 21.773438 6.132812 21.753906 6.097656 C 21.738281 6.070312 21.726562 6.042969 21.710938 6.015625 C 21.691406 5.980469 21.675781 5.941406 21.667969 5.902344 C 21.640625 5.878906 21.617188 5.847656 21.597656 5.8125 C 21.582031 5.785156 21.5625 5.757812 21.546875 5.730469 C 21.527344 5.695312 21.511719 5.660156 21.503906 5.621094 C 21.472656 5.597656 21.445312 5.566406 21.425781 5.53125 C 21.40625 5.507812 21.390625 5.480469 21.371094 5.457031 C 21.351562 5.421875 21.332031 5.386719 21.320312 5.347656 C 21.289062 5.324219 21.261719 5.296875 21.238281 5.265625 C 21.222656 5.238281 21.203125 5.214844 21.183594 5.1875 C 21.160156 5.15625 21.140625 5.121094 21.128906 5.085938 C 21.09375 5.0625 21.066406 5.035156 21.039062 5.003906 C 21.019531 4.980469 21 4.957031 20.980469 4.929688 C 20.957031 4.898438 20.9375 4.867188 20.921875 4.832031 C 20.886719 4.808594 20.855469 4.785156 20.828125 4.753906 C 20.808594 4.730469 20.789062 4.707031 20.769531 4.683594 C 20.742188 4.652344 20.71875 4.621094 20.703125 4.585938 C 20.667969 4.566406 20.636719 4.542969 20.609375 4.515625 C 20.585938 4.492188 20.5625 4.46875 20.542969 4.449219 C 20.511719 4.417969 20.488281 4.386719 20.472656 4.351562 C 20.4375 4.335938 20.402344 4.3125 20.375 4.285156 C 20.351562 4.265625 20.328125 4.242188 20.304688 4.222656 C 20.273438 4.195312 20.25 4.164062 20.230469 4.128906 C 20.195312 4.113281 20.160156 4.09375 20.128906 4.066406 C 20.105469 4.046875 20.082031 4.027344 20.058594 4.007812 C 20.023438 3.980469 20 3.953125 19.976562 3.921875 C 19.941406 3.90625 19.90625 3.886719 19.875 3.863281 C 19.847656 3.84375 19.824219 3.824219 19.796875 3.804688 C 19.765625 3.78125 19.738281 3.753906 19.714844 3.722656 C 19.675781 3.710938 19.640625 3.695312 19.609375 3.671875 C 19.582031 3.652344 19.554688 3.636719 19.53125 3.617188 C 19.496094 3.59375 19.46875 3.566406 19.441406 3.539062 C 19.40625 3.527344 19.367188 3.511719 19.335938 3.492188 C 19.308594 3.476562 19.28125 3.457031 19.253906 3.441406 C 19.21875 3.421875 19.1875 3.394531 19.160156 3.367188 C 19.125 3.359375 19.085938 3.34375 19.050781 3.324219 C 19.023438 3.308594 18.996094 3.296875 18.96875 3.28125 C 18.933594 3.261719 18.902344 3.238281 18.875 3.210938 C 18.835938 3.203125 18.796875 3.191406 18.761719 3.175781 C 18.734375 3.160156 18.703125 3.148438 18.675781 3.132812 C 18.640625 3.117188 18.605469 3.09375 18.578125 3.066406 C 18.539062 3.0625 18.5 3.054688 18.464844 3.035156 C 18.433594 3.023438 18.40625 3.011719 18.375 3 C 18.339844 2.984375 18.304688 2.964844 18.273438 2.941406 C 18.234375 2.9375 18.195312 2.929688 18.160156 2.914062 C 18.128906 2.902344 18.101562 2.894531 18.070312 2.882812 C 18.03125 2.867188 17.996094 2.851562 17.964844 2.828125 C 17.925781 2.828125 17.886719 2.820312 17.847656 2.808594 C 17.820312 2.796875 17.789062 2.789062 17.757812 2.78125 C 17.71875 2.769531 17.683594 2.75 17.652344 2.730469 C 17.613281 2.730469 17.574219 2.726562 17.535156 2.714844 C 17.503906 2.707031 17.472656 2.699219 17.445312 2.691406 C 17.402344 2.683594 17.367188 2.667969 17.335938 2.648438 C 17.296875 2.652344 17.253906 2.648438 17.214844 2.640625 C 17.1875 2.632812 17.15625 2.628906 17.125 2.621094 C 17.085938 2.613281 17.046875 2.601562 17.011719 2.582031 C 16.972656 2.585938 16.933594 2.585938 16.894531 2.582031 C 16.863281 2.574219 16.832031 2.570312 16.800781 2.566406 C 16.761719 2.5625 16.722656 2.550781 16.6875 2.535156 C 16.652344 2.539062 16.609375 2.542969 16.570312 2.539062 C 16.539062 2.535156 16.507812 2.53125 16.476562 2.527344 C 16.4375 2.523438 16.398438 2.515625 16.363281 2.5 C 16.324219 2.507812 16.285156 2.511719 16.246094 2.507812 C 16.214844 2.507812 16.183594 2.503906 16.152344 2.503906 C 16.109375 2.503906 16.070312 2.496094 16.035156 2.480469 C 15.996094 2.492188 15.957031 2.496094 15.917969 2.496094 C 15.890625 2.496094 15.863281 2.496094 15.832031 2.496094 L 15.824219 2.496094 C 15.78125 2.496094 15.742188 2.492188 15.707031 2.480469 C 15.667969 2.492188 15.628906 2.5 15.589844 2.5 C 15.558594 2.503906 15.527344 2.503906 15.496094 2.503906 C 15.457031 2.507812 15.417969 2.503906 15.378906 2.496094 C 15.34375 2.507812 15.304688 2.515625 15.261719 2.519531 C 15.234375 2.523438 15.203125 2.527344 15.171875 2.53125 C 15.128906 2.535156 15.089844 2.53125 15.050781 2.523438 C 15.015625 2.539062 14.980469 2.550781 14.9375 2.554688 C 14.90625 2.5625 14.875 2.566406 14.847656 2.570312 C 14.804688 2.574219 14.765625 2.574219 14.726562 2.570312 C 14.691406 2.585938 14.65625 2.601562 14.617188 2.609375 C 14.585938 2.613281 14.554688 2.621094 14.523438 2.625 C 14.484375 2.632812 14.445312 2.636719 14.40625 2.632812 C 14.371094 2.652344 14.335938 2.667969 14.296875 2.675781 C 14.265625 2.683594 14.234375 2.691406 14.203125 2.699219 C 14.164062 2.707031 14.125 2.710938 14.085938 2.710938 C 14.054688 2.730469 14.019531 2.746094 13.980469 2.757812 C 13.949219 2.769531 13.917969 2.777344 13.890625 2.785156 C 13.851562 2.796875 13.8125 2.804688 13.773438 2.804688 C 13.742188 2.824219 13.707031 2.84375 13.667969 2.859375 C 13.636719 2.867188 13.609375 2.878906 13.578125 2.890625 C 13.542969 2.902344 13.503906 2.910156 13.464844 2.914062 C 13.433594 2.9375 13.398438 2.957031 13.363281 2.972656 C 13.332031 2.984375 13.304688 2.996094 13.273438 3.007812 C 13.238281 3.023438 13.199219 3.03125 13.160156 3.035156 C 13.132812 3.0625 13.097656 3.082031 13.0625 3.101562 C 13.035156 3.113281 13.003906 3.125 12.976562 3.140625 C 12.941406 3.15625 12.902344 3.167969 12.863281 3.175781 C 12.835938 3.203125 12.804688 3.226562 12.769531 3.242188 C 12.742188 3.257812 12.714844 3.273438 12.6875 3.289062 C 12.652344 3.304688 12.613281 3.320312 12.574219 3.328125 C 12.546875 3.355469 12.519531 3.382812 12.484375 3.402344 C 12.457031 3.417969 12.429688 3.433594 12.402344 3.449219 C 12.367188 3.46875 12.332031 3.484375 12.292969 3.496094 C 12.269531 3.523438 12.238281 3.550781 12.203125 3.574219 C 12.179688 3.589844 12.152344 3.605469 12.128906 3.625 C 12.09375 3.648438 12.058594 3.664062 12.019531 3.675781 C 11.996094 3.707031 11.96875 3.734375 11.933594 3.757812 C 11.910156 3.777344 11.886719 3.792969 11.859375 3.8125 C 11.828125 3.835938 11.792969 3.855469 11.757812 3.871094 C 11.734375 3.902344 11.707031 3.929688 11.675781 3.957031 C 11.652344 3.976562 11.625 3.996094 11.601562 4.015625 C 11.570312 4.039062 11.539062 4.0625 11.5 4.074219 C 11.480469 4.109375 11.457031 4.140625 11.425781 4.167969 C 11.402344 4.1875 11.378906 4.207031 11.355469 4.226562 C 11.324219 4.257812 11.292969 4.277344 11.257812 4.292969 C 11.238281 4.328125 11.214844 4.359375 11.183594 4.386719 C 11.164062 4.410156 11.140625 4.433594 11.117188 4.453125 C 11.089844 4.484375 11.058594 4.507812 11.023438 4.523438 C 11.007812 4.558594 10.984375 4.59375 10.957031 4.621094 C 10.933594 4.644531 10.914062 4.667969 10.894531 4.691406 C 10.867188 4.722656 10.835938 4.746094 10.800781 4.765625 C 10.785156 4.800781 10.765625 4.835938 10.738281 4.867188 C 10.71875 4.890625 10.699219 4.914062 10.679688 4.9375 C 10.652344 4.972656 10.625 4.996094 10.589844 5.019531 C 10.578125 5.054688 10.558594 5.089844 10.535156 5.121094 C 10.515625 5.148438 10.496094 5.171875 10.476562 5.195312 C 10.453125 5.230469 10.425781 5.257812 10.394531 5.28125 C 10.382812 5.316406 10.363281 5.355469 10.339844 5.386719 C 10.324219 5.414062 10.304688 5.4375 10.289062 5.464844 C 10.265625 5.5 10.238281 5.527344 10.207031 5.554688 C 10.199219 5.589844 10.183594 5.625 10.160156 5.660156 C 10.144531 5.6875 10.128906 5.714844 10.113281 5.742188 C 10.089844 5.777344 10.066406 5.808594 10.039062 5.832031 C 10.027344 5.871094 10.015625 5.910156 9.996094 5.945312 C 9.980469 5.972656 9.964844 6 9.949219 6.027344 C 9.929688 6.0625 9.90625 6.09375 9.878906 6.121094 C 9.875 6.160156 9.863281 6.199219 9.84375 6.234375 C 9.832031 6.261719 9.816406 6.289062 9.804688 6.320312 C 9.785156 6.355469 9.761719 6.390625 9.738281 6.417969 C 9.734375 6.457031 9.722656 6.496094 9.707031 6.53125 C 9.695312 6.5625 9.683594 6.589844 9.671875 6.617188 C 9.65625 6.65625 9.632812 6.691406 9.609375 6.71875 C 9.605469 6.757812 9.597656 6.796875 9.585938 6.835938 C 9.574219 6.867188 9.5625 6.894531 9.550781 6.925781 C 9.539062 6.960938 9.519531 6.996094 9.496094 7.03125 C 9.496094 7.066406 9.488281 7.109375 9.476562 7.144531 C 9.46875 7.175781 9.457031 7.207031 9.449219 7.234375 C 9.4375 7.273438 9.421875 7.3125 9.398438 7.34375 C 9.398438 7.382812 9.394531 7.421875 9.386719 7.460938 C 9.378906 7.492188 9.371094 7.519531 9.363281 7.550781 C 9.351562 7.589844 9.335938 7.628906 9.316406 7.660156 C 9.320312 7.699219 9.316406 7.738281 9.308594 7.777344 C 9.304688 7.808594 9.296875 7.839844 9.289062 7.871094 C 9.28125 7.910156 9.269531 7.949219 9.25 7.980469 C 9.257812 8.019531 9.257812 8.058594 9.25 8.101562 C 9.246094 8.128906 9.238281 8.160156 9.234375 8.191406 C 9.230469 8.234375 9.21875 8.269531 9.203125 8.304688 C 9.207031 8.34375 9.210938 8.382812 9.207031 8.425781 C 9.203125 8.453125 9.199219 8.484375 9.195312 8.515625 C 9.191406 8.558594 9.183594 8.597656 9.167969 8.632812 C 9.175781 8.667969 9.179688 8.710938 9.175781 8.75 C 9.175781 8.78125 9.171875 8.8125 9.171875 8.84375 C 9.171875 8.882812 9.164062 8.921875 9.148438 8.960938 C 9.160156 8.996094 9.164062 9.035156 9.164062 9.078125 C 9.164062 9.105469 9.164062 9.136719 9.164062 9.167969 L 9.164062 9.171875 C 9.164062 9.210938 9.160156 9.25 9.148438 9.289062 C 9.160156 9.324219 9.167969 9.363281 9.167969 9.40625 C 9.167969 9.4375 9.171875 9.46875 9.171875 9.5 C 9.175781 9.539062 9.171875 9.578125 9.160156 9.617188 C 9.175781 9.652344 9.183594 9.691406 9.1875 9.730469 C 9.191406 9.761719 9.195312 9.792969 9.195312 9.824219 C 9.199219 9.863281 9.199219 9.90625 9.191406 9.941406 C 9.207031 9.976562 9.21875 10.015625 9.222656 10.054688 C 9.226562 10.085938 9.230469 10.117188 9.238281 10.148438 C 9.242188 10.1875 9.242188 10.230469 9.238281 10.265625 C 9.253906 10.300781 9.265625 10.339844 9.273438 10.378906 C 9.28125 10.410156 9.285156 10.441406 9.292969 10.472656 C 9.300781 10.511719 9.300781 10.550781 9.300781 10.589844 C 9.316406 10.621094 9.332031 10.660156 9.34375 10.699219 C 9.347656 10.730469 9.355469 10.761719 9.363281 10.789062 C 9.375 10.828125 9.378906 10.867188 9.375 10.90625 C 9.398438 10.941406 9.414062 10.976562 9.425781 11.015625 C 9.433594 11.046875 9.441406 11.074219 9.453125 11.105469 C 9.464844 11.144531 9.46875 11.183594 9.46875 11.222656 C 9.492188 11.253906 9.511719 11.289062 9.523438 11.328125 C 9.535156 11.355469 9.542969 11.386719 9.554688 11.414062 C 9.570312 11.453125 9.574219 11.492188 9.578125 11.53125 C 9.601562 11.5625 9.621094 11.597656 9.636719 11.632812 C 9.648438 11.664062 9.660156 11.691406 9.671875 11.71875 C 9.6875 11.757812 9.699219 11.796875 9.703125 11.835938 C 9.726562 11.863281 9.75 11.894531 9.765625 11.933594 C 9.777344 11.960938 9.792969 11.988281 9.804688 12.019531 C 9.824219 12.054688 9.835938 12.09375 9.839844 12.128906 C 9.867188 12.160156 9.890625 12.191406 9.910156 12.226562 C 9.921875 12.253906 9.9375 12.28125 9.953125 12.308594 C 9.972656 12.34375 9.984375 12.382812 9.992188 12.417969 C 10.019531 12.445312 10.046875 12.476562 10.066406 12.511719 C 10.082031 12.539062 10.097656 12.566406 10.113281 12.59375 C 10.136719 12.628906 10.148438 12.664062 10.160156 12.703125 C 10.1875 12.726562 10.214844 12.757812 10.238281 12.789062 C 10.253906 12.816406 10.273438 12.84375 10.289062 12.867188 C 10.3125 12.902344 10.328125 12.9375 10.339844 12.976562 C 10.371094 13 10.398438 13.027344 10.421875 13.058594 C 10.441406 13.085938 10.460938 13.109375 10.476562 13.136719 C 10.5 13.167969 10.519531 13.203125 10.535156 13.238281 C 10.566406 13.261719 10.59375 13.289062 10.621094 13.320312 C 10.640625 13.34375 10.660156 13.367188 10.679688 13.394531 C 10.703125 13.425781 10.726562 13.457031 10.742188 13.496094 C 10.773438 13.515625 10.804688 13.539062 10.832031 13.570312 C 10.851562 13.59375 10.871094 13.617188 10.894531 13.640625 C 10.921875 13.671875 10.941406 13.703125 10.960938 13.738281 C 10.992188 13.757812 11.023438 13.78125 11.054688 13.8125 C 11.074219 13.832031 11.097656 13.855469 11.117188 13.878906 C 11.148438 13.90625 11.171875 13.9375 11.1875 13.972656 C 11.222656 13.988281 11.257812 14.011719 11.285156 14.039062 C 11.308594 14.0625 11.332031 14.082031 11.355469 14.105469 C 11.386719 14.132812 11.410156 14.160156 11.429688 14.195312 C 11.464844 14.210938 11.5 14.230469 11.53125 14.257812 C 11.554688 14.277344 11.578125 14.296875 11.601562 14.316406 C 11.632812 14.34375 11.660156 14.375 11.683594 14.40625 C 11.71875 14.417969 11.753906 14.4375 11.785156 14.460938 C 11.8125 14.480469 11.835938 14.5 11.859375 14.519531 C 11.894531 14.542969 11.921875 14.570312 11.945312 14.601562 C 11.980469 14.617188 12.019531 14.632812 12.050781 14.65625 C 12.078125 14.675781 12.101562 14.691406 12.128906 14.707031 C 12.164062 14.730469 12.191406 14.757812 12.214844 14.789062 C 12.253906 14.796875 12.289062 14.8125 12.324219 14.835938 C 12.351562 14.851562 12.378906 14.867188 12.40625 14.882812 C 12.441406 14.90625 12.46875 14.929688 12.496094 14.960938 C 12.535156 14.96875 12.570312 14.980469 12.609375 15 C 12.636719 15.015625 12.664062 15.03125 12.691406 15.046875 C 12.726562 15.066406 12.757812 15.089844 12.785156 15.117188 C 12.824219 15.125 12.859375 15.136719 12.898438 15.152344 C 12.925781 15.167969 12.953125 15.179688 12.984375 15.195312 C 13.019531 15.210938 13.050781 15.234375 13.082031 15.261719 C 13.121094 15.265625 13.15625 15.273438 13.195312 15.289062 C 13.222656 15.304688 13.253906 15.316406 13.28125 15.328125 C 13.320312 15.34375 13.355469 15.363281 13.382812 15.386719 C 13.421875 15.390625 13.460938 15.398438 13.5 15.414062 C 13.527344 15.425781 13.558594 15.433594 13.585938 15.445312 C 13.625 15.460938 13.660156 15.476562 13.691406 15.5 C 13.730469 15.503906 13.769531 15.507812 13.808594 15.519531 C 13.839844 15.53125 13.871094 15.539062 13.898438 15.550781 C 13.9375 15.5625 13.972656 15.578125 14.007812 15.597656 C 14.042969 15.597656 14.085938 15.601562 14.125 15.613281 C 14.152344 15.621094 14.183594 15.628906 14.214844 15.636719 C 14.253906 15.644531 14.289062 15.660156 14.324219 15.679688 C 14.363281 15.679688 14.402344 15.679688 14.441406 15.6875 C 14.472656 15.695312 14.503906 15.703125 14.53125 15.707031 C 14.574219 15.714844 14.609375 15.730469 14.644531 15.746094 C 14.683594 15.742188 14.722656 15.742188 14.761719 15.75 C 14.792969 15.753906 14.824219 15.757812 14.855469 15.761719 C 14.894531 15.769531 14.933594 15.78125 14.96875 15.796875 C 15.007812 15.789062 15.046875 15.789062 15.085938 15.792969 C 15.117188 15.796875 15.148438 15.800781 15.179688 15.804688 C 15.222656 15.808594 15.257812 15.816406 15.296875 15.832031 C 15.332031 15.824219 15.371094 15.820312 15.414062 15.820312 C 15.445312 15.824219 15.476562 15.824219 15.507812 15.828125 C 15.546875 15.828125 15.585938 15.835938 15.621094 15.847656 C 15.660156 15.839844 15.699219 15.832031 15.738281 15.835938 C 15.769531 15.835938 15.800781 15.835938 15.832031 15.835938 Z M 15.855469 15.835938 "/>
<path style=" stroke:none;fill-rule:nonzero;fill:rgb(0%,0%,0%);fill-opacity:1;" d="M 9.167969 25 C 4.113281 25 0 20.886719 0 15.832031 C 0 13.730469 0.730469 11.675781 2.054688 10.050781 C 3.363281 8.449219 5.191406 7.324219 7.199219 6.882812 C 7.339844 6.855469 7.484375 6.894531 7.582031 6.996094 C 7.683594 7.097656 7.726562 7.238281 7.695312 7.378906 C 7.5625 7.976562 7.496094 8.578125 7.496094 9.167969 C 7.496094 13.761719 11.238281 17.503906 15.832031 17.503906 C 16.421875 17.503906 17.023438 17.4375 17.621094 17.304688 C 17.761719 17.273438 17.90625 17.316406 18.003906 17.417969 C 18.105469 17.515625 18.148438 17.660156 18.117188 17.800781 C 17.675781 19.808594 16.550781 21.636719 14.949219 22.941406 C 13.324219 24.269531 11.269531 25 9.167969 25 Z M 6.765625 7.855469 C 3.289062 8.902344 0.832031 12.160156 0.832031 15.832031 C 0.832031 20.429688 4.570312 24.167969 9.167969 24.167969 C 12.839844 24.167969 16.097656 21.710938 17.144531 18.234375 C 16.707031 18.300781 16.265625 18.332031 15.832031 18.332031 C 10.78125 18.332031 6.667969 14.21875 6.667969 9.167969 C 6.667969 8.734375 6.699219 8.292969 6.765625 7.855469 Z M 6.765625 7.855469 "/>
<path style=" stroke:none;fill-rule:nonzero;fill:rgb(0%,0%,0%);fill-opacity:1;" d="M 15.832031 12.914062 C 14.6875 12.914062 13.75 11.980469 13.75 10.832031 C 13.75 10.605469 13.9375 10.417969 14.167969 10.417969 C 14.394531 10.417969 14.582031 10.605469 14.582031 10.832031 C 14.582031 11.523438 15.144531 12.085938 15.832031 12.085938 C 16.523438 12.085938 17.085938 11.523438 17.085938 10.832031 C 17.085938 10.144531 16.523438 9.582031 15.832031 9.582031 C 14.6875 9.582031 13.75 8.648438 13.75 7.5 C 13.75 6.351562 14.6875 5.417969 15.832031 5.417969 C 16.980469 5.417969 17.914062 6.351562 17.914062 7.5 C 17.914062 7.730469 17.730469 7.914062 17.5 7.914062 C 17.269531 7.914062 17.085938 7.730469 17.085938 7.5 C 17.085938 6.808594 16.523438 6.246094 15.832031 6.246094 C 15.144531 6.246094 14.582031 6.808594 14.582031 7.5 C 14.582031 8.191406 15.144531 8.75 15.832031 8.75 C 16.980469 8.75 17.914062 9.683594 17.914062 10.832031 C 17.914062 11.980469 16.980469 12.914062 15.832031 12.914062 Z M 15.832031 12.914062 "/>
<path style=" stroke:none;fill-rule:nonzero;fill:rgb(0%,0%,0%);fill-opacity:1;" d="M 15.832031 13.75 C 15.605469 13.75 15.417969 13.5625 15.417969 13.332031 L 15.417969 5 C 15.417969 4.769531 15.605469 4.582031 15.832031 4.582031 C 16.0625 4.582031 16.25 4.769531 16.25 5 L 16.25 13.332031 C 16.25 13.5625 16.0625 13.75 15.832031 13.75 Z M 15.832031 13.75 "/>
<path style=" stroke:none;fill-rule:nonzero;fill:rgb(0%,0%,0%);fill-opacity:1;" d="M 9.167969 19.582031 C 8.019531 19.582031 7.085938 18.648438 7.085938 17.5 C 7.085938 17.269531 7.269531 17.085938 7.5 17.085938 C 7.730469 17.085938 7.914062 17.269531 7.914062 17.5 C 7.914062 18.191406 8.476562 18.753906 9.167969 18.753906 C 9.855469 18.753906 10.417969 18.191406 10.417969 17.5 C 10.417969 16.808594 9.855469 16.25 9.167969 16.25 C 8.019531 16.25 7.085938 15.316406 7.085938 14.167969 C 7.085938 13.625 7.292969 13.109375 7.671875 12.71875 C 7.828125 12.554688 8.09375 12.550781 8.257812 12.710938 C 8.421875 12.867188 8.425781 13.132812 8.265625 13.296875 C 8.039062 13.53125 7.914062 13.839844 7.914062 14.167969 C 7.914062 14.855469 8.476562 15.417969 9.167969 15.417969 C 10.3125 15.417969 11.25 16.351562 11.25 17.5 C 11.25 18.648438 10.3125 19.582031 9.167969 19.582031 Z M 9.167969 19.582031 "/>
<path style=" stroke:none;fill-rule:nonzero;fill:rgb(0%,0%,0%);fill-opacity:1;" d="M 9.167969 20.417969 C 8.9375 20.417969 8.75 20.230469 8.75 20 L 8.75 14.835938 C 8.75 14.605469 8.9375 14.417969 9.167969 14.417969 C 9.394531 14.417969 9.582031 14.605469 9.582031 14.835938 L 9.582031 20 C 9.582031 20.230469 9.394531 20.417969 9.167969 20.417969 Z M 9.167969 20.417969 "/>
<path style=" stroke:none;fill-rule:nonzero;fill:rgb(0%,0%,0%);fill-opacity:1;" d="M 7.085938 9.894531 C 6.90625 9.894531 6.75 9.777344 6.695312 9.613281 C 6.695312 9.613281 6.691406 9.613281 6.691406 9.613281 C 6.523438 9.613281 6.367188 9.507812 6.304688 9.34375 C 6.222656 9.128906 6.332031 8.886719 6.546875 8.808594 C 6.679688 8.757812 6.824219 8.710938 6.964844 8.664062 C 7.09375 8.625 7.230469 8.648438 7.335938 8.730469 C 7.441406 8.808594 7.503906 8.933594 7.503906 9.066406 C 7.503906 9.09375 7.5 9.117188 7.5 9.144531 C 7.5 9.152344 7.496094 9.160156 7.496094 9.167969 C 7.496094 9.269531 7.5 9.367188 7.503906 9.464844 C 7.511719 9.691406 7.332031 9.886719 7.101562 9.894531 C 7.097656 9.894531 7.09375 9.894531 7.085938 9.894531 Z M 7.085938 9.894531 "/>
<path style=" stroke:none;fill-rule:nonzero;fill:rgb(0%,0%,0%);fill-opacity:1;" d="M 2.144531 15.316406 C 2.125 15.316406 2.109375 15.316406 2.089844 15.316406 C 1.863281 15.285156 1.703125 15.078125 1.730469 14.851562 L 1.734375 14.832031 C 1.742188 14.785156 1.753906 14.738281 1.777344 14.695312 C 1.769531 14.648438 1.769531 14.597656 1.777344 14.550781 C 1.785156 14.511719 1.789062 14.472656 1.796875 14.4375 C 1.808594 14.386719 1.824219 14.339844 1.847656 14.300781 C 1.84375 14.253906 1.84375 14.203125 1.855469 14.15625 C 1.867188 14.117188 1.875 14.082031 1.882812 14.042969 C 1.894531 13.992188 1.914062 13.949219 1.941406 13.910156 C 1.9375 13.863281 1.945312 13.8125 1.957031 13.765625 C 1.96875 13.726562 1.980469 13.691406 1.988281 13.65625 C 2.003906 13.605469 2.027344 13.5625 2.054688 13.523438 C 2.054688 13.476562 2.0625 13.429688 2.078125 13.378906 C 2.089844 13.34375 2.105469 13.308594 2.117188 13.273438 C 2.136719 13.226562 2.160156 13.183594 2.191406 13.144531 C 2.191406 13.097656 2.203125 13.050781 2.222656 13.003906 C 2.234375 12.96875 2.25 12.933594 2.265625 12.898438 C 2.285156 12.851562 2.3125 12.808594 2.34375 12.777344 C 2.351562 12.726562 2.363281 12.679688 2.382812 12.636719 C 2.402344 12.601562 2.417969 12.566406 2.433594 12.53125 C 2.457031 12.484375 2.484375 12.445312 2.519531 12.414062 C 2.527344 12.367188 2.542969 12.320312 2.566406 12.277344 C 2.585938 12.242188 2.601562 12.207031 2.621094 12.175781 C 2.648438 12.128906 2.679688 12.09375 2.714844 12.0625 C 2.722656 12.015625 2.742188 11.96875 2.765625 11.925781 C 2.789062 11.894531 2.808594 11.859375 2.828125 11.828125 C 2.855469 11.785156 2.890625 11.75 2.925781 11.722656 C 2.9375 11.675781 2.957031 11.628906 2.988281 11.589844 C 3.007812 11.558594 3.03125 11.527344 3.054688 11.496094 C 3.082031 11.453125 3.117188 11.417969 3.15625 11.390625 C 3.171875 11.347656 3.195312 11.304688 3.222656 11.261719 C 3.246094 11.234375 3.273438 11.203125 3.296875 11.171875 C 3.328125 11.132812 3.363281 11.101562 3.40625 11.078125 C 3.421875 11.03125 3.445312 10.988281 3.480469 10.949219 C 3.503906 10.921875 3.53125 10.894531 3.554688 10.863281 C 3.589844 10.828125 3.628906 10.796875 3.667969 10.773438 C 3.6875 10.730469 3.714844 10.6875 3.75 10.652344 C 3.777344 10.625 3.804688 10.597656 3.832031 10.570312 C 3.867188 10.535156 3.90625 10.507812 3.949219 10.484375 C 3.96875 10.445312 4 10.402344 4.035156 10.371094 C 4.0625 10.34375 4.09375 10.316406 4.121094 10.289062 C 4.15625 10.257812 4.199219 10.230469 4.242188 10.214844 C 4.265625 10.171875 4.296875 10.132812 4.335938 10.101562 C 4.367188 10.078125 4.394531 10.050781 4.425781 10.027344 C 4.601562 9.882812 4.863281 9.910156 5.007812 10.085938 C 5.15625 10.265625 5.128906 10.527344 4.949219 10.671875 C 4.925781 10.691406 4.898438 10.714844 4.871094 10.734375 C 4.839844 10.765625 4.800781 10.789062 4.761719 10.804688 C 4.738281 10.839844 4.710938 10.875 4.679688 10.90625 C 4.652344 10.929688 4.628906 10.949219 4.605469 10.972656 C 4.570312 11.003906 4.535156 11.03125 4.496094 11.046875 C 4.476562 11.085938 4.453125 11.121094 4.421875 11.152344 C 4.398438 11.175781 4.375 11.203125 4.347656 11.226562 C 4.320312 11.257812 4.285156 11.285156 4.246094 11.304688 C 4.230469 11.34375 4.207031 11.382812 4.175781 11.414062 C 4.152344 11.441406 4.128906 11.464844 4.109375 11.492188 C 4.078125 11.527344 4.046875 11.554688 4.007812 11.578125 C 3.996094 11.617188 3.972656 11.65625 3.945312 11.691406 C 3.921875 11.714844 3.902344 11.742188 3.882812 11.769531 C 3.855469 11.804688 3.824219 11.835938 3.789062 11.859375 C 3.773438 11.898438 3.753906 11.941406 3.730469 11.976562 C 3.710938 12.003906 3.691406 12.03125 3.671875 12.058594 C 3.644531 12.097656 3.613281 12.128906 3.582031 12.152344 C 3.570312 12.195312 3.554688 12.234375 3.527344 12.273438 C 3.511719 12.300781 3.492188 12.332031 3.476562 12.359375 C 3.453125 12.398438 3.421875 12.429688 3.390625 12.460938 C 3.382812 12.5 3.367188 12.542969 3.34375 12.582031 C 3.328125 12.609375 3.3125 12.640625 3.296875 12.671875 C 3.273438 12.710938 3.25 12.746094 3.21875 12.773438 C 3.210938 12.816406 3.199219 12.859375 3.179688 12.898438 C 3.164062 12.929688 3.148438 12.960938 3.132812 12.988281 C 3.113281 13.03125 3.089844 13.066406 3.0625 13.097656 C 3.058594 13.140625 3.046875 13.183594 3.027344 13.222656 C 3.015625 13.253906 3.003906 13.285156 2.988281 13.316406 C 2.972656 13.359375 2.949219 13.394531 2.921875 13.429688 C 2.921875 13.472656 2.914062 13.515625 2.898438 13.554688 C 2.886719 13.589844 2.875 13.621094 2.863281 13.652344 C 2.847656 13.695312 2.828125 13.734375 2.800781 13.765625 C 2.800781 13.808594 2.796875 13.851562 2.785156 13.894531 C 2.773438 13.929688 2.765625 13.960938 2.753906 13.992188 C 2.742188 14.035156 2.722656 14.078125 2.699219 14.113281 C 2.703125 14.152344 2.699219 14.199219 2.6875 14.242188 C 2.679688 14.273438 2.671875 14.308594 2.664062 14.339844 C 2.65625 14.382812 2.640625 14.425781 2.617188 14.460938 C 2.621094 14.503906 2.621094 14.546875 2.613281 14.589844 C 2.605469 14.625 2.601562 14.65625 2.59375 14.691406 C 2.585938 14.734375 2.574219 14.777344 2.554688 14.8125 C 2.5625 14.855469 2.5625 14.898438 2.554688 14.945312 L 2.554688 14.953125 C 2.527344 15.164062 2.351562 15.316406 2.144531 15.316406 Z M 2.144531 15.316406 "/>
<path style=" stroke:none;fill-rule:nonzero;fill:rgb(0%,0%,0%);fill-opacity:1;" d="M 9.035156 23.332031 C 9.035156 23.332031 9.03125 23.332031 9.027344 23.332031 C 8.992188 23.332031 8.953125 23.332031 8.914062 23.328125 C 8.863281 23.328125 8.816406 23.316406 8.773438 23.300781 C 8.726562 23.3125 8.679688 23.316406 8.628906 23.3125 C 8.589844 23.3125 8.550781 23.308594 8.511719 23.304688 C 8.460938 23.300781 8.414062 23.289062 8.371094 23.265625 C 8.324219 23.277344 8.277344 23.28125 8.226562 23.273438 C 8.1875 23.269531 8.148438 23.265625 8.113281 23.257812 C 8.0625 23.253906 8.015625 23.238281 7.972656 23.214844 C 7.925781 23.222656 7.878906 23.222656 7.828125 23.214844 C 7.789062 23.207031 7.753906 23.199219 7.714844 23.191406 C 7.664062 23.183594 7.621094 23.164062 7.578125 23.140625 C 7.53125 23.144531 7.480469 23.140625 7.433594 23.132812 C 7.394531 23.121094 7.359375 23.113281 7.320312 23.101562 C 7.273438 23.089844 7.226562 23.070312 7.1875 23.042969 C 7.140625 23.046875 7.09375 23.042969 7.042969 23.027344 C 7.007812 23.015625 6.96875 23.003906 6.933594 22.992188 C 6.886719 22.976562 6.84375 22.957031 6.804688 22.925781 C 6.757812 22.925781 6.707031 22.917969 6.660156 22.902344 C 6.625 22.890625 6.589844 22.875 6.550781 22.863281 C 6.503906 22.84375 6.460938 22.820312 6.425781 22.789062 C 6.378906 22.785156 6.332031 22.777344 6.285156 22.757812 C 6.25 22.742188 6.214844 22.726562 6.179688 22.710938 C 6.132812 22.691406 6.09375 22.664062 6.058594 22.632812 C 6.011719 22.628906 5.964844 22.613281 5.917969 22.59375 C 5.882812 22.574219 5.847656 22.558594 5.816406 22.542969 C 5.769531 22.519531 5.730469 22.488281 5.699219 22.453125 C 5.652344 22.449219 5.605469 22.433594 5.5625 22.410156 C 5.527344 22.390625 5.492188 22.371094 5.460938 22.351562 C 5.417969 22.328125 5.378906 22.296875 5.347656 22.257812 C 5.300781 22.25 5.257812 22.230469 5.214844 22.203125 C 5.179688 22.183594 5.148438 22.164062 5.117188 22.144531 C 5.074219 22.117188 5.039062 22.082031 5.011719 22.042969 C 4.964844 22.03125 4.917969 22.011719 4.878906 21.984375 C 4.847656 21.960938 4.816406 21.9375 4.785156 21.917969 C 4.742188 21.886719 4.710938 21.851562 4.683594 21.8125 C 4.636719 21.796875 4.59375 21.773438 4.554688 21.742188 C 4.523438 21.71875 4.492188 21.695312 4.464844 21.671875 C 4.425781 21.640625 4.394531 21.601562 4.367188 21.5625 C 4.324219 21.546875 4.28125 21.519531 4.242188 21.488281 C 4.214844 21.460938 4.1875 21.4375 4.15625 21.410156 C 4.121094 21.378906 4.089844 21.339844 4.066406 21.296875 C 4.023438 21.277344 3.984375 21.25 3.949219 21.214844 C 3.921875 21.1875 3.894531 21.160156 3.867188 21.132812 C 3.828125 21.097656 3.800781 21.058594 3.78125 21.015625 C 3.738281 20.992188 3.699219 20.964844 3.667969 20.925781 C 3.640625 20.898438 3.613281 20.871094 3.589844 20.839844 C 3.554688 20.804688 3.527344 20.761719 3.511719 20.71875 C 3.46875 20.695312 3.433594 20.664062 3.398438 20.625 C 3.375 20.59375 3.351562 20.566406 3.328125 20.535156 C 3.296875 20.496094 3.273438 20.453125 3.257812 20.40625 C 3.21875 20.382812 3.179688 20.347656 3.152344 20.308594 C 3.128906 20.277344 3.105469 20.246094 3.082031 20.214844 C 3.054688 20.171875 3.03125 20.128906 3.019531 20.082031 C 2.980469 20.054688 2.945312 20.019531 2.917969 19.976562 C 2.898438 19.945312 2.875 19.914062 2.855469 19.882812 C 2.828125 19.839844 2.808594 19.792969 2.800781 19.746094 C 2.761719 19.714844 2.730469 19.679688 2.703125 19.636719 C 2.683594 19.601562 2.664062 19.570312 2.648438 19.535156 C 2.621094 19.492188 2.605469 19.445312 2.597656 19.398438 C 2.5625 19.367188 2.53125 19.328125 2.507812 19.28125 C 2.492188 19.25 2.472656 19.214844 2.457031 19.179688 C 2.433594 19.136719 2.417969 19.085938 2.414062 19.039062 C 2.382812 19.007812 2.351562 18.964844 2.332031 18.917969 C 2.316406 18.882812 2.300781 18.847656 2.285156 18.8125 C 2.265625 18.769531 2.253906 18.71875 2.25 18.671875 C 2.21875 18.636719 2.195312 18.59375 2.175781 18.546875 C 2.160156 18.511719 2.148438 18.476562 2.132812 18.4375 C 2.117188 18.390625 2.109375 18.34375 2.109375 18.296875 C 2.078125 18.257812 2.054688 18.214844 2.039062 18.167969 C 2.027344 18.128906 2.015625 18.09375 2.003906 18.054688 C 1.988281 18.007812 1.984375 17.960938 1.984375 17.910156 C 1.957031 17.871094 1.9375 17.828125 1.921875 17.78125 C 1.914062 17.742188 1.902344 17.707031 1.894531 17.667969 C 1.882812 17.621094 1.878906 17.570312 1.882812 17.523438 C 1.859375 17.484375 1.839844 17.4375 1.828125 17.386719 C 1.820312 17.351562 1.8125 17.3125 1.804688 17.273438 C 1.796875 17.226562 1.796875 17.175781 1.804688 17.128906 C 1.78125 17.085938 1.765625 17.042969 1.757812 16.992188 C 1.75 16.953125 1.746094 16.914062 1.738281 16.878906 C 1.734375 16.828125 1.734375 16.777344 1.746094 16.730469 C 1.722656 16.6875 1.710938 16.640625 1.707031 16.589844 C 1.703125 16.554688 1.699219 16.515625 1.695312 16.476562 C 1.691406 16.425781 1.695312 16.378906 1.707031 16.332031 C 1.6875 16.289062 1.679688 16.242188 1.675781 16.191406 C 1.675781 16.152344 1.671875 16.113281 1.671875 16.074219 C 1.664062 15.847656 1.84375 15.652344 2.074219 15.648438 C 2.304688 15.640625 2.492188 15.820312 2.5 16.046875 C 2.503906 16.082031 2.503906 16.117188 2.503906 16.152344 C 2.507812 16.195312 2.503906 16.238281 2.492188 16.28125 C 2.507812 16.320312 2.519531 16.363281 2.523438 16.40625 C 2.523438 16.441406 2.527344 16.472656 2.53125 16.507812 C 2.535156 16.554688 2.53125 16.597656 2.523438 16.636719 C 2.542969 16.675781 2.554688 16.71875 2.5625 16.761719 C 2.566406 16.796875 2.570312 16.832031 2.578125 16.863281 C 2.582031 16.90625 2.582031 16.953125 2.578125 16.992188 C 2.597656 17.03125 2.613281 17.070312 2.621094 17.117188 C 2.628906 17.148438 2.632812 17.183594 2.640625 17.214844 C 2.652344 17.261719 2.652344 17.304688 2.648438 17.347656 C 2.671875 17.382812 2.6875 17.421875 2.699219 17.464844 C 2.707031 17.5 2.714844 17.53125 2.726562 17.566406 C 2.738281 17.609375 2.742188 17.652344 2.738281 17.695312 C 2.765625 17.726562 2.785156 17.765625 2.796875 17.808594 C 2.808594 17.84375 2.816406 17.875 2.828125 17.910156 C 2.84375 17.949219 2.847656 17.996094 2.847656 18.035156 C 2.875 18.070312 2.898438 18.109375 2.914062 18.148438 C 2.925781 18.183594 2.9375 18.214844 2.949219 18.246094 C 2.964844 18.289062 2.972656 18.332031 2.976562 18.375 C 3.003906 18.40625 3.027344 18.441406 3.046875 18.484375 C 3.058594 18.515625 3.074219 18.546875 3.089844 18.578125 C 3.105469 18.617188 3.117188 18.660156 3.125 18.703125 C 3.152344 18.734375 3.179688 18.769531 3.199219 18.808594 C 3.214844 18.839844 3.230469 18.871094 3.246094 18.898438 C 3.265625 18.941406 3.28125 18.980469 3.285156 19.023438 C 3.316406 19.050781 3.347656 19.085938 3.367188 19.125 C 3.386719 19.15625 3.402344 19.183594 3.417969 19.214844 C 3.441406 19.253906 3.457031 19.292969 3.46875 19.335938 C 3.5 19.363281 3.53125 19.394531 3.554688 19.433594 C 3.574219 19.460938 3.589844 19.488281 3.609375 19.519531 C 3.636719 19.554688 3.652344 19.59375 3.664062 19.636719 C 3.699219 19.660156 3.730469 19.691406 3.757812 19.730469 C 3.777344 19.757812 3.796875 19.785156 3.816406 19.8125 C 3.84375 19.847656 3.863281 19.886719 3.878906 19.925781 C 3.914062 19.949219 3.945312 19.980469 3.972656 20.015625 C 3.996094 20.039062 4.015625 20.066406 4.039062 20.09375 C 4.066406 20.128906 4.089844 20.164062 4.105469 20.203125 C 4.140625 20.226562 4.175781 20.253906 4.207031 20.285156 C 4.230469 20.3125 4.253906 20.335938 4.273438 20.363281 C 4.304688 20.394531 4.332031 20.433594 4.347656 20.472656 C 4.386719 20.488281 4.421875 20.515625 4.453125 20.546875 C 4.476562 20.570312 4.5 20.59375 4.527344 20.621094 C 4.558594 20.652344 4.585938 20.6875 4.605469 20.722656 C 4.644531 20.742188 4.679688 20.765625 4.714844 20.792969 C 4.738281 20.816406 4.765625 20.839844 4.789062 20.863281 C 4.824219 20.890625 4.851562 20.925781 4.875 20.960938 C 4.914062 20.976562 4.953125 21 4.984375 21.027344 C 5.011719 21.046875 5.039062 21.070312 5.066406 21.089844 C 5.101562 21.117188 5.132812 21.148438 5.15625 21.183594 C 5.195312 21.199219 5.234375 21.21875 5.269531 21.242188 C 5.296875 21.265625 5.328125 21.285156 5.355469 21.304688 C 5.390625 21.328125 5.421875 21.359375 5.449219 21.394531 C 5.488281 21.402344 5.527344 21.421875 5.566406 21.445312 C 5.59375 21.464844 5.625 21.484375 5.652344 21.5 C 5.691406 21.523438 5.722656 21.554688 5.75 21.585938 C 5.792969 21.59375 5.832031 21.609375 5.871094 21.632812 C 5.902344 21.648438 5.929688 21.664062 5.960938 21.679688 C 6 21.703125 6.035156 21.730469 6.0625 21.761719 C 6.105469 21.765625 6.148438 21.78125 6.1875 21.800781 C 6.21875 21.816406 6.25 21.832031 6.277344 21.84375 C 6.320312 21.863281 6.355469 21.890625 6.386719 21.917969 C 6.429688 21.921875 6.46875 21.933594 6.511719 21.953125 C 6.542969 21.964844 6.574219 21.980469 6.605469 21.992188 C 6.648438 22.007812 6.683594 22.03125 6.714844 22.058594 C 6.757812 22.0625 6.800781 22.070312 6.84375 22.085938 C 6.875 22.097656 6.90625 22.109375 6.9375 22.121094 C 6.980469 22.136719 7.019531 22.15625 7.050781 22.183594 C 7.09375 22.183594 7.136719 22.1875 7.179688 22.203125 C 7.214844 22.210938 7.246094 22.222656 7.28125 22.230469 C 7.320312 22.246094 7.363281 22.261719 7.398438 22.289062 C 7.4375 22.285156 7.484375 22.289062 7.527344 22.300781 C 7.558594 22.308594 7.59375 22.316406 7.625 22.324219 C 7.667969 22.335938 7.710938 22.351562 7.746094 22.375 C 7.789062 22.367188 7.832031 22.371094 7.875 22.378906 C 7.910156 22.382812 7.941406 22.390625 7.976562 22.398438 C 8.019531 22.40625 8.0625 22.417969 8.097656 22.441406 C 8.140625 22.433594 8.183594 22.429688 8.226562 22.4375 C 8.261719 22.441406 8.296875 22.445312 8.328125 22.453125 C 8.375 22.457031 8.417969 22.46875 8.453125 22.488281 C 8.496094 22.476562 8.539062 22.472656 8.585938 22.476562 C 8.617188 22.480469 8.652344 22.484375 8.6875 22.488281 C 8.730469 22.488281 8.773438 22.5 8.8125 22.515625 C 8.855469 22.503906 8.898438 22.5 8.941406 22.5 C 8.976562 22.5 9.011719 22.5 9.042969 22.503906 C 9.089844 22.503906 9.132812 22.511719 9.171875 22.523438 C 9.214844 22.511719 9.257812 22.503906 9.300781 22.503906 C 9.335938 22.5 9.371094 22.5 9.402344 22.5 C 9.449219 22.5 9.492188 22.503906 9.53125 22.515625 C 9.570312 22.5 9.613281 22.488281 9.660156 22.484375 C 9.691406 22.484375 9.726562 22.480469 9.761719 22.476562 C 9.804688 22.472656 9.847656 22.476562 9.890625 22.484375 C 9.929688 22.46875 9.972656 22.457031 10.015625 22.449219 C 10.050781 22.445312 10.082031 22.441406 10.117188 22.4375 C 10.160156 22.429688 10.207031 22.429688 10.246094 22.4375 C 10.285156 22.417969 10.324219 22.402344 10.371094 22.394531 C 10.402344 22.390625 10.4375 22.382812 10.46875 22.375 C 10.515625 22.367188 10.558594 22.367188 10.601562 22.371094 C 10.636719 22.347656 10.675781 22.332031 10.722656 22.320312 C 10.753906 22.3125 10.789062 22.304688 10.820312 22.296875 C 10.863281 22.285156 10.90625 22.28125 10.949219 22.285156 C 10.984375 22.257812 11.023438 22.238281 11.066406 22.226562 C 11.101562 22.21875 11.132812 22.207031 11.164062 22.199219 C 11.207031 22.183594 11.25 22.179688 11.292969 22.179688 C 11.328125 22.152344 11.367188 22.128906 11.410156 22.117188 C 11.441406 22.105469 11.472656 22.09375 11.503906 22.082031 C 11.546875 22.066406 11.589844 22.054688 11.632812 22.054688 C 11.664062 22.027344 11.703125 22.003906 11.742188 21.984375 C 11.773438 21.972656 11.804688 21.957031 11.835938 21.945312 C 11.878906 21.925781 11.921875 21.917969 11.964844 21.910156 C 11.992188 21.882812 12.03125 21.855469 12.070312 21.835938 C 12.101562 21.824219 12.132812 21.808594 12.160156 21.792969 C 12.203125 21.773438 12.242188 21.757812 12.285156 21.753906 C 12.316406 21.722656 12.347656 21.695312 12.386719 21.671875 C 12.417969 21.65625 12.449219 21.636719 12.476562 21.621094 C 12.515625 21.597656 12.558594 21.582031 12.597656 21.574219 C 12.625 21.542969 12.660156 21.511719 12.695312 21.488281 C 12.726562 21.472656 12.753906 21.453125 12.785156 21.433594 C 12.820312 21.410156 12.859375 21.394531 12.902344 21.382812 C 12.925781 21.347656 12.957031 21.316406 12.996094 21.292969 C 13.023438 21.269531 13.050781 21.25 13.078125 21.230469 C 13.113281 21.203125 13.15625 21.183594 13.195312 21.171875 C 13.21875 21.136719 13.25 21.105469 13.285156 21.078125 C 13.308594 21.054688 13.335938 21.035156 13.363281 21.011719 C 13.398438 20.984375 13.4375 20.960938 13.476562 20.949219 C 13.496094 20.910156 13.523438 20.875 13.558594 20.847656 C 13.585938 20.824219 13.609375 20.800781 13.636719 20.777344 C 13.667969 20.75 13.707031 20.726562 13.746094 20.707031 C 13.765625 20.671875 13.789062 20.636719 13.824219 20.601562 C 13.847656 20.578125 13.871094 20.554688 13.894531 20.53125 C 13.925781 20.5 13.960938 20.472656 14 20.453125 C 14.015625 20.414062 14.042969 20.378906 14.070312 20.347656 C 14.09375 20.320312 14.117188 20.296875 14.140625 20.269531 C 14.171875 20.238281 14.203125 20.210938 14.242188 20.1875 C 14.257812 20.148438 14.277344 20.109375 14.308594 20.074219 C 14.328125 20.050781 14.351562 20.023438 14.371094 19.996094 C 14.398438 19.960938 14.433594 19.933594 14.46875 19.910156 C 14.480469 19.867188 14.5 19.828125 14.527344 19.792969 C 14.546875 19.765625 14.570312 19.738281 14.589844 19.710938 C 14.613281 19.675781 14.644531 19.644531 14.679688 19.617188 C 14.691406 19.578125 14.707031 19.539062 14.734375 19.5 C 14.753906 19.472656 14.769531 19.441406 14.789062 19.414062 C 14.8125 19.375 14.84375 19.34375 14.875 19.316406 C 14.882812 19.273438 14.898438 19.234375 14.921875 19.195312 C 14.933594 19.179688 14.941406 19.164062 14.953125 19.148438 C 15.066406 18.949219 15.320312 18.878906 15.519531 18.992188 C 15.71875 19.105469 15.785156 19.359375 15.671875 19.558594 C 15.660156 19.578125 15.648438 19.597656 15.640625 19.617188 C 15.613281 19.660156 15.582031 19.695312 15.542969 19.726562 C 15.535156 19.773438 15.515625 19.820312 15.488281 19.859375 C 15.46875 19.894531 15.449219 19.925781 15.425781 19.957031 C 15.398438 20 15.363281 20.035156 15.324219 20.0625 C 15.3125 20.109375 15.292969 20.152344 15.261719 20.195312 C 15.242188 20.226562 15.21875 20.257812 15.195312 20.289062 C 15.164062 20.328125 15.128906 20.363281 15.089844 20.386719 C 15.074219 20.433594 15.050781 20.476562 15.019531 20.515625 C 14.996094 20.546875 14.972656 20.574219 14.949219 20.605469 C 14.914062 20.644531 14.878906 20.675781 14.835938 20.699219 C 14.820312 20.742188 14.792969 20.785156 14.761719 20.824219 C 14.734375 20.851562 14.707031 20.878906 14.683594 20.910156 C 14.648438 20.945312 14.609375 20.976562 14.566406 20.996094 C 14.546875 21.039062 14.519531 21.082031 14.484375 21.117188 C 14.457031 21.144531 14.429688 21.171875 14.402344 21.199219 C 14.367188 21.234375 14.324219 21.261719 14.28125 21.28125 C 14.257812 21.320312 14.230469 21.359375 14.191406 21.394531 C 14.164062 21.421875 14.136719 21.445312 14.105469 21.472656 C 14.070312 21.503906 14.027344 21.53125 13.980469 21.546875 C 13.957031 21.585938 13.925781 21.625 13.886719 21.65625 C 13.855469 21.679688 13.828125 21.703125 13.796875 21.730469 C 13.757812 21.761719 13.714844 21.78125 13.667969 21.796875 C 13.640625 21.835938 13.609375 21.871094 13.566406 21.902344 C 13.535156 21.925781 13.503906 21.949219 13.472656 21.96875 C 13.433594 22 13.386719 22.019531 13.339844 22.03125 C 13.3125 22.070312 13.277344 22.105469 13.234375 22.132812 C 13.203125 22.152344 13.171875 22.171875 13.136719 22.191406 C 13.09375 22.21875 13.050781 22.238281 13.003906 22.246094 C 12.972656 22.285156 12.933594 22.316406 12.890625 22.339844 C 12.859375 22.359375 12.824219 22.378906 12.789062 22.398438 C 12.746094 22.421875 12.699219 22.4375 12.652344 22.445312 C 12.621094 22.480469 12.582031 22.511719 12.535156 22.53125 C 12.5 22.550781 12.46875 22.566406 12.433594 22.582031 C 12.386719 22.605469 12.339844 22.617188 12.292969 22.625 C 12.257812 22.65625 12.21875 22.683594 12.171875 22.703125 C 12.136719 22.71875 12.101562 22.734375 12.066406 22.75 C 12.019531 22.769531 11.96875 22.78125 11.921875 22.78125 C 11.886719 22.8125 11.84375 22.839844 11.796875 22.855469 C 11.761719 22.871094 11.726562 22.882812 11.6875 22.898438 C 11.640625 22.914062 11.59375 22.921875 11.542969 22.921875 C 11.507812 22.949219 11.464844 22.972656 11.414062 22.988281 C 11.378906 23 11.339844 23.011719 11.304688 23.023438 C 11.257812 23.039062 11.207031 23.042969 11.160156 23.039062 C 11.121094 23.066406 11.074219 23.085938 11.027344 23.101562 C 10.988281 23.109375 10.953125 23.117188 10.914062 23.128906 C 10.867188 23.140625 10.816406 23.140625 10.769531 23.136719 C 10.726562 23.160156 10.683594 23.179688 10.632812 23.1875 C 10.59375 23.195312 10.558594 23.203125 10.519531 23.210938 C 10.46875 23.21875 10.421875 23.21875 10.375 23.210938 C 10.332031 23.234375 10.285156 23.25 10.234375 23.257812 C 10.195312 23.261719 10.160156 23.269531 10.121094 23.273438 C 10.070312 23.28125 10.023438 23.277344 9.976562 23.265625 C 9.933594 23.285156 9.886719 23.300781 9.835938 23.304688 C 9.796875 23.308594 9.757812 23.308594 9.71875 23.3125 C 9.667969 23.316406 9.621094 23.3125 9.574219 23.296875 C 9.53125 23.316406 9.484375 23.328125 9.433594 23.328125 C 9.394531 23.328125 9.355469 23.332031 9.316406 23.332031 C 9.265625 23.332031 9.21875 23.324219 9.171875 23.308594 C 9.128906 23.324219 9.085938 23.332031 9.035156 23.332031 Z M 9.035156 23.332031 "/>
<path style=" stroke:none;fill-rule:nonzero;fill:rgb(0%,0%,0%);fill-opacity:1;" d="M 15.804688 18.722656 C 15.753906 18.722656 15.707031 18.714844 15.65625 18.695312 C 15.488281 18.632812 15.386719 18.472656 15.386719 18.304688 C 15.21875 18.246094 15.101562 18.085938 15.105469 17.898438 C 15.113281 17.667969 15.308594 17.488281 15.535156 17.496094 C 15.640625 17.5 15.738281 17.503906 15.832031 17.503906 C 15.839844 17.503906 15.847656 17.5 15.855469 17.5 C 15.882812 17.5 15.90625 17.496094 15.933594 17.496094 C 15.933594 17.496094 15.9375 17.496094 15.9375 17.496094 C 16.070312 17.496094 16.191406 17.558594 16.269531 17.664062 C 16.351562 17.769531 16.375 17.90625 16.335938 18.035156 C 16.292969 18.175781 16.242188 18.316406 16.191406 18.453125 C 16.128906 18.621094 15.972656 18.722656 15.804688 18.722656 Z M 15.804688 18.722656 "/>
<path style=" stroke:none;fill-rule:nonzero;fill:rgb(0%,0%,0%);fill-opacity:1;" d="M 13.898438 18.117188 C 13.867188 18.117188 13.835938 18.113281 13.804688 18.105469 C 13.777344 18.101562 13.753906 18.09375 13.726562 18.089844 C 13.691406 18.082031 13.660156 18.070312 13.632812 18.054688 C 13.597656 18.054688 13.5625 18.050781 13.53125 18.039062 C 13.503906 18.035156 13.480469 18.027344 13.453125 18.019531 C 13.417969 18.011719 13.386719 18 13.359375 17.980469 C 13.324219 17.980469 13.292969 17.976562 13.257812 17.964844 C 13.234375 17.957031 13.207031 17.949219 13.179688 17.941406 C 13.148438 17.933594 13.117188 17.917969 13.089844 17.902344 C 13.054688 17.898438 13.023438 17.894531 12.988281 17.882812 C 12.964844 17.875 12.9375 17.867188 12.914062 17.855469 C 12.878906 17.847656 12.847656 17.832031 12.820312 17.8125 C 12.789062 17.808594 12.753906 17.800781 12.722656 17.789062 C 12.699219 17.78125 12.671875 17.773438 12.648438 17.761719 C 12.613281 17.75 12.585938 17.734375 12.558594 17.714844 C 12.523438 17.710938 12.492188 17.703125 12.460938 17.691406 C 12.433594 17.679688 12.410156 17.671875 12.382812 17.660156 C 12.351562 17.648438 12.324219 17.632812 12.296875 17.613281 C 12.261719 17.605469 12.230469 17.597656 12.199219 17.582031 C 12.175781 17.574219 12.148438 17.5625 12.125 17.550781 C 12.09375 17.535156 12.0625 17.519531 12.039062 17.5 C 12.003906 17.492188 11.972656 17.480469 11.941406 17.46875 C 11.917969 17.457031 11.894531 17.445312 11.867188 17.433594 C 11.835938 17.417969 11.808594 17.398438 11.785156 17.378906 C 11.75 17.371094 11.71875 17.359375 11.6875 17.34375 C 11.664062 17.332031 11.640625 17.320312 11.617188 17.308594 C 11.585938 17.292969 11.558594 17.273438 11.53125 17.25 C 11.5 17.242188 11.46875 17.230469 11.4375 17.210938 C 11.414062 17.199219 11.390625 17.1875 11.367188 17.171875 C 11.339844 17.15625 11.3125 17.136719 11.285156 17.113281 C 11.253906 17.105469 11.222656 17.089844 11.195312 17.074219 C 11.171875 17.058594 11.148438 17.046875 11.125 17.03125 C 11.09375 17.015625 11.066406 16.992188 11.042969 16.96875 C 11.011719 16.960938 10.980469 16.945312 10.953125 16.925781 C 10.929688 16.910156 10.90625 16.898438 10.886719 16.882812 C 10.855469 16.863281 10.828125 16.84375 10.808594 16.816406 C 10.777344 16.808594 10.746094 16.792969 10.71875 16.773438 C 10.695312 16.757812 10.671875 16.742188 10.648438 16.726562 C 10.621094 16.707031 10.597656 16.683594 10.574219 16.660156 C 10.542969 16.648438 10.511719 16.632812 10.484375 16.609375 C 10.464844 16.59375 10.441406 16.578125 10.421875 16.5625 C 10.390625 16.542969 10.367188 16.519531 10.347656 16.496094 C 10.316406 16.480469 10.285156 16.464844 10.257812 16.441406 C 10.078125 16.308594 10.039062 16.050781 10.171875 15.867188 C 10.308594 15.683594 10.566406 15.640625 10.753906 15.773438 C 10.757812 15.777344 10.765625 15.785156 10.769531 15.785156 C 10.792969 15.804688 10.8125 15.828125 10.832031 15.847656 C 10.859375 15.859375 10.886719 15.875 10.910156 15.894531 C 10.929688 15.910156 10.949219 15.921875 10.96875 15.9375 C 10.996094 15.957031 11.019531 15.976562 11.039062 16 C 11.066406 16.011719 11.09375 16.023438 11.121094 16.042969 C 11.140625 16.058594 11.160156 16.070312 11.179688 16.082031 C 11.207031 16.101562 11.230469 16.121094 11.25 16.144531 C 11.28125 16.152344 11.308594 16.167969 11.332031 16.183594 C 11.355469 16.199219 11.375 16.210938 11.394531 16.222656 C 11.421875 16.242188 11.445312 16.261719 11.46875 16.28125 C 11.496094 16.289062 11.523438 16.304688 11.550781 16.320312 C 11.574219 16.332031 11.59375 16.34375 11.613281 16.355469 C 11.640625 16.375 11.667969 16.390625 11.6875 16.414062 C 11.71875 16.421875 11.746094 16.433594 11.773438 16.449219 C 11.792969 16.460938 11.816406 16.472656 11.835938 16.484375 C 11.863281 16.5 11.890625 16.515625 11.914062 16.535156 C 11.941406 16.542969 11.96875 16.554688 12 16.570312 C 12.019531 16.582031 12.042969 16.59375 12.0625 16.601562 C 12.09375 16.617188 12.117188 16.632812 12.140625 16.652344 C 12.171875 16.660156 12.199219 16.671875 12.226562 16.683594 C 12.25 16.695312 12.273438 16.707031 12.292969 16.714844 C 12.324219 16.730469 12.347656 16.746094 12.371094 16.765625 C 12.402344 16.769531 12.433594 16.777344 12.460938 16.792969 C 12.484375 16.800781 12.503906 16.8125 12.527344 16.820312 C 12.558594 16.832031 12.582031 16.847656 12.609375 16.867188 C 12.636719 16.871094 12.667969 16.878906 12.695312 16.890625 C 12.71875 16.902344 12.742188 16.910156 12.765625 16.917969 C 12.792969 16.929688 12.820312 16.945312 12.847656 16.960938 C 12.875 16.964844 12.90625 16.972656 12.933594 16.984375 L 13.003906 17.011719 C 13.035156 17.019531 13.0625 17.035156 13.085938 17.050781 C 13.117188 17.054688 13.148438 17.058594 13.175781 17.070312 C 13.199219 17.078125 13.222656 17.085938 13.246094 17.09375 C 13.277344 17.101562 13.304688 17.117188 13.332031 17.132812 C 13.359375 17.132812 13.390625 17.140625 13.421875 17.148438 C 13.445312 17.15625 13.46875 17.160156 13.492188 17.167969 C 13.523438 17.175781 13.550781 17.191406 13.578125 17.203125 C 13.605469 17.207031 13.636719 17.210938 13.667969 17.21875 C 13.691406 17.222656 13.714844 17.230469 13.738281 17.238281 C 13.769531 17.246094 13.796875 17.253906 13.824219 17.269531 C 13.855469 17.269531 13.886719 17.273438 13.917969 17.28125 C 13.941406 17.285156 13.964844 17.292969 13.988281 17.296875 C 14.210938 17.347656 14.351562 17.570312 14.300781 17.792969 C 14.257812 17.988281 14.085938 18.117188 13.898438 18.117188 Z M 13.898438 18.117188 "/>
<path style=" stroke:none;fill-rule:nonzero;fill:rgb(0%,0%,0%);fill-opacity:1;" d="M 9.882812 15.996094 C 9.78125 15.996094 9.679688 15.960938 9.601562 15.886719 C 9.582031 15.867188 9.5625 15.851562 9.542969 15.832031 C 9.515625 15.808594 9.496094 15.78125 9.476562 15.753906 C 9.449219 15.738281 9.421875 15.714844 9.398438 15.691406 C 9.378906 15.671875 9.359375 15.652344 9.339844 15.636719 C 9.316406 15.609375 9.292969 15.582031 9.277344 15.554688 C 9.25 15.539062 9.222656 15.515625 9.199219 15.492188 C 9.179688 15.472656 9.164062 15.453125 9.144531 15.433594 C 9.121094 15.40625 9.101562 15.378906 9.082031 15.351562 C 9.054688 15.332031 9.03125 15.308594 9.007812 15.285156 C 8.988281 15.265625 8.972656 15.242188 8.953125 15.222656 C 8.929688 15.199219 8.914062 15.167969 8.898438 15.140625 C 8.871094 15.121094 8.84375 15.097656 8.824219 15.070312 C 8.804688 15.050781 8.789062 15.03125 8.769531 15.007812 C 8.75 14.984375 8.730469 14.953125 8.714844 14.925781 C 8.691406 14.90625 8.667969 14.878906 8.644531 14.855469 C 8.628906 14.832031 8.613281 14.8125 8.59375 14.789062 C 8.574219 14.761719 8.554688 14.734375 8.542969 14.703125 C 8.515625 14.683594 8.492188 14.65625 8.472656 14.628906 C 8.457031 14.609375 8.441406 14.585938 8.425781 14.566406 C 8.40625 14.539062 8.386719 14.507812 8.375 14.476562 C 8.351562 14.457031 8.328125 14.429688 8.308594 14.402344 C 8.292969 14.378906 8.277344 14.359375 8.261719 14.335938 C 8.242188 14.308594 8.226562 14.277344 8.214844 14.246094 C 8.191406 14.222656 8.171875 14.195312 8.152344 14.167969 C 8.136719 14.144531 8.121094 14.121094 8.105469 14.101562 C 8.089844 14.070312 8.074219 14.039062 8.0625 14.007812 C 8.039062 13.984375 8.019531 13.960938 8 13.929688 C 7.988281 13.90625 7.972656 13.882812 7.960938 13.859375 C 7.941406 13.832031 7.929688 13.800781 7.917969 13.769531 C 7.894531 13.746094 7.875 13.71875 7.859375 13.6875 C 7.84375 13.664062 7.832031 13.640625 7.820312 13.617188 C 7.800781 13.585938 7.789062 13.554688 7.78125 13.523438 C 7.757812 13.5 7.738281 13.472656 7.722656 13.441406 C 7.710938 13.417969 7.699219 13.394531 7.6875 13.367188 C 7.667969 13.339844 7.65625 13.304688 7.652344 13.273438 C 7.628906 13.25 7.609375 13.21875 7.59375 13.1875 C 7.582031 13.164062 7.570312 13.140625 7.558594 13.117188 C 7.546875 13.085938 7.535156 13.054688 7.527344 13.019531 C 7.507812 12.996094 7.488281 12.964844 7.476562 12.933594 C 7.464844 12.910156 7.453125 12.886719 7.441406 12.863281 C 7.429688 12.828125 7.417969 12.796875 7.414062 12.765625 C 7.394531 12.738281 7.378906 12.707031 7.363281 12.675781 C 7.355469 12.652344 7.34375 12.625 7.332031 12.601562 C 7.320312 12.570312 7.3125 12.535156 7.308594 12.503906 C 7.289062 12.476562 7.273438 12.445312 7.261719 12.414062 C 7.25 12.390625 7.242188 12.363281 7.230469 12.339844 C 7.21875 12.308594 7.210938 12.273438 7.207031 12.242188 C 7.191406 12.214844 7.175781 12.183594 7.164062 12.148438 C 7.15625 12.125 7.148438 12.097656 7.136719 12.074219 C 7.128906 12.039062 7.121094 12.007812 7.117188 11.972656 C 7.101562 11.945312 7.085938 11.914062 7.078125 11.882812 C 7.070312 11.855469 7.0625 11.832031 7.054688 11.804688 C 7.042969 11.773438 7.039062 11.738281 7.035156 11.707031 C 7.019531 11.675781 7.007812 11.644531 6.996094 11.613281 C 6.992188 11.585938 6.984375 11.5625 6.976562 11.535156 C 6.96875 11.5 6.964844 11.46875 6.960938 11.433594 C 6.949219 11.40625 6.933594 11.375 6.925781 11.339844 C 6.921875 11.3125 6.914062 11.289062 6.910156 11.261719 C 6.902344 11.226562 6.898438 11.195312 6.898438 11.160156 C 6.882812 11.132812 6.871094 11.097656 6.863281 11.066406 C 6.859375 11.039062 6.855469 11.011719 6.847656 10.988281 C 6.84375 10.953125 6.839844 10.917969 6.839844 10.886719 C 6.828125 10.855469 6.816406 10.824219 6.8125 10.789062 C 6.804688 10.761719 6.800781 10.738281 6.796875 10.710938 C 6.792969 10.675781 6.789062 10.644531 6.792969 10.609375 C 6.78125 10.578125 6.769531 10.546875 6.765625 10.511719 C 6.761719 10.484375 6.757812 10.457031 6.753906 10.433594 C 6.722656 10.203125 6.882812 9.996094 7.109375 9.964844 C 7.335938 9.933594 7.546875 10.09375 7.578125 10.320312 C 7.582031 10.34375 7.582031 10.367188 7.585938 10.390625 C 7.59375 10.421875 7.59375 10.453125 7.589844 10.484375 C 7.601562 10.511719 7.609375 10.539062 7.617188 10.570312 C 7.621094 10.59375 7.625 10.621094 7.628906 10.644531 C 7.632812 10.675781 7.636719 10.707031 7.632812 10.734375 C 7.648438 10.761719 7.65625 10.792969 7.664062 10.824219 C 7.667969 10.847656 7.671875 10.871094 7.675781 10.894531 C 7.683594 10.925781 7.6875 10.957031 7.6875 10.984375 C 7.699219 11.011719 7.710938 11.042969 7.714844 11.074219 C 7.722656 11.097656 7.726562 11.121094 7.734375 11.144531 C 7.742188 11.175781 7.746094 11.203125 7.746094 11.234375 C 7.757812 11.261719 7.769531 11.289062 7.777344 11.320312 C 7.785156 11.34375 7.792969 11.367188 7.796875 11.390625 C 7.804688 11.421875 7.8125 11.453125 7.8125 11.480469 C 7.828125 11.507812 7.839844 11.535156 7.847656 11.566406 C 7.855469 11.589844 7.863281 11.613281 7.871094 11.636719 C 7.878906 11.667969 7.886719 11.695312 7.886719 11.726562 C 7.902344 11.753906 7.914062 11.78125 7.925781 11.8125 C 7.933594 11.832031 7.941406 11.855469 7.949219 11.878906 C 7.960938 11.910156 7.964844 11.941406 7.96875 11.96875 C 7.984375 11.996094 8 12.023438 8.011719 12.050781 C 8.019531 12.074219 8.027344 12.097656 8.035156 12.121094 C 8.046875 12.148438 8.054688 12.179688 8.058594 12.210938 C 8.078125 12.234375 8.089844 12.261719 8.101562 12.292969 C 8.113281 12.3125 8.121094 12.335938 8.128906 12.359375 C 8.144531 12.386719 8.152344 12.417969 8.15625 12.445312 C 8.175781 12.472656 8.191406 12.496094 8.203125 12.527344 C 8.210938 12.546875 8.222656 12.570312 8.230469 12.59375 C 8.246094 12.621094 8.253906 12.652344 8.261719 12.679688 C 8.277344 12.703125 8.296875 12.730469 8.308594 12.757812 C 8.320312 12.78125 8.332031 12.804688 8.339844 12.824219 C 8.355469 12.851562 8.367188 12.882812 8.371094 12.910156 C 8.390625 12.933594 8.410156 12.960938 8.421875 12.988281 C 8.433594 13.007812 8.445312 13.03125 8.457031 13.054688 C 8.472656 13.082031 8.484375 13.109375 8.492188 13.136719 C 8.511719 13.160156 8.527344 13.1875 8.542969 13.214844 C 8.554688 13.234375 8.566406 13.257812 8.582031 13.277344 C 8.597656 13.304688 8.609375 13.332031 8.617188 13.363281 C 8.636719 13.382812 8.65625 13.410156 8.671875 13.4375 C 8.683594 13.457031 8.699219 13.476562 8.710938 13.496094 C 8.726562 13.523438 8.738281 13.554688 8.75 13.582031 C 8.769531 13.601562 8.789062 13.625 8.808594 13.652344 C 8.820312 13.675781 8.832031 13.695312 8.847656 13.714844 C 8.863281 13.742188 8.878906 13.769531 8.886719 13.796875 C 8.910156 13.816406 8.929688 13.839844 8.949219 13.867188 C 8.960938 13.886719 8.976562 13.90625 8.988281 13.925781 C 9.007812 13.953125 9.023438 13.980469 9.035156 14.007812 C 9.058594 14.027344 9.078125 14.050781 9.097656 14.078125 C 9.109375 14.097656 9.125 14.117188 9.140625 14.136719 C 9.160156 14.160156 9.175781 14.1875 9.1875 14.214844 C 9.210938 14.234375 9.230469 14.257812 9.25 14.28125 C 9.265625 14.300781 9.28125 14.320312 9.296875 14.339844 C 9.316406 14.363281 9.332031 14.390625 9.34375 14.417969 C 9.367188 14.433594 9.390625 14.457031 9.410156 14.480469 C 9.425781 14.5 9.441406 14.519531 9.457031 14.535156 C 9.476562 14.5625 9.496094 14.585938 9.507812 14.613281 C 9.535156 14.632812 9.558594 14.652344 9.578125 14.675781 C 9.59375 14.695312 9.609375 14.710938 9.625 14.730469 C 9.648438 14.753906 9.664062 14.777344 9.679688 14.804688 C 9.703125 14.820312 9.726562 14.84375 9.75 14.863281 C 9.765625 14.882812 9.785156 14.902344 9.800781 14.917969 C 9.820312 14.941406 9.839844 14.964844 9.855469 14.992188 C 9.882812 15.007812 9.90625 15.027344 9.929688 15.050781 C 9.945312 15.066406 9.960938 15.085938 9.980469 15.101562 C 10.003906 15.125 10.023438 15.148438 10.039062 15.171875 C 10.0625 15.1875 10.089844 15.207031 10.113281 15.230469 C 10.128906 15.246094 10.148438 15.261719 10.164062 15.277344 C 10.332031 15.433594 10.34375 15.695312 10.1875 15.863281 C 10.105469 15.953125 9.992188 15.996094 9.882812 15.996094 Z M 9.882812 15.996094 "/>
</g>
</svg>
