<?xml version="1.0" encoding="UTF-8"?>
<svg xmlns="http://www.w3.org/2000/svg" xmlns:xlink="http://www.w3.org/1999/xlink" width="25pt" height="25pt" viewBox="0 0 25 25" version="1.1">
<defs>
<filter id="alpha" filterUnits="objectBoundingBox" x="0%" y="0%" width="100%" height="100%">
  <feColorMatrix type="matrix" in="SourceGraphic" values="0 0 0 0 1 0 0 0 0 1 0 0 0 0 1 0 0 0 1 0"/>
</filter>
<mask id="mask0">
  <g filter="url(#alpha)">
<rect x="0" y="0" width="25" height="25" style="fill:rgb(0%,0%,0%);fill-opacity:0.2;stroke:none;"/>
  </g>
</mask>
<clipPath id="clip1">
  <rect x="0" y="0" width="25" height="25"/>
</clipPath>
<g id="surface5" clip-path="url(#clip1)">
<path style=" stroke:none;fill-rule:nonzero;fill:rgb(34.901961%,18.823529%,33.333333%);fill-opacity:1;" d="M 10.957031 8.847656 C 12.753906 8.164062 14.433594 6.953125 14.453125 4.53125 C 14.453125 3.867188 14.316406 3.222656 14.101562 2.597656 L 13.320312 0.429688 C 13.027344 0.410156 12.773438 0.390625 12.5 0.390625 C 9.042969 0.390625 5.917969 1.855469 3.710938 4.179688 L 4.375 5.917969 C 5.371094 8.535156 8.320312 9.863281 10.957031 8.847656 Z M 10.957031 8.847656 "/>
</g>
<mask id="mask1">
  <g filter="url(#alpha)">
<rect x="0" y="0" width="25" height="25" style="fill:rgb(0%,0%,0%);fill-opacity:0.301961;stroke:none;"/>
  </g>
</mask>
<clipPath id="clip2">
  <rect x="0" y="0" width="25" height="25"/>
</clipPath>
<g id="surface8" clip-path="url(#clip2)">
<path style=" stroke:none;fill-rule:nonzero;fill:rgb(96.470588%,96.862745%,96.470588%);fill-opacity:1;" d="M 12.5 6.230469 C 9.160156 6.230469 6.445312 8.945312 6.445312 12.285156 C 6.445312 15.625 9.160156 18.339844 12.5 18.339844 C 15.839844 18.339844 18.554688 15.625 18.554688 12.285156 C 18.554688 8.945312 15.839844 6.230469 12.5 6.230469 Z M 12.5 6.230469 "/>
</g>
<mask id="mask2">
  <g filter="url(#alpha)">
<rect x="0" y="0" width="25" height="25" style="fill:rgb(0%,0%,0%);fill-opacity:0.501961;stroke:none;"/>
  </g>
</mask>
<clipPath id="clip3">
  <rect x="0" y="0" width="25" height="25"/>
</clipPath>
<g id="surface11" clip-path="url(#clip3)">
<path style=" stroke:none;fill-rule:nonzero;fill:rgb(96.470588%,96.078431%,95.294118%);fill-opacity:1;" d="M 3.730469 10.3125 C 5.058594 11.796875 7.695312 11.71875 9.257812 10 C 10.996094 8.105469 10.976562 5.371094 9.394531 4.140625 C 8.359375 3.339844 7.324219 2.578125 6.621094 2.070312 C 6.582031 2.03125 6.523438 2.011719 6.484375 1.972656 C 4.238281 3.28125 2.421875 5.273438 1.386719 7.695312 C 1.425781 7.734375 1.464844 7.792969 1.503906 7.832031 C 2.050781 8.4375 2.871094 9.335938 3.730469 10.3125 Z M 3.730469 10.3125 "/>
</g>
</defs>
<g id="surface1">
<path style=" stroke:none;fill-rule:nonzero;fill:rgb(93.72549%,93.72549%,93.72549%);fill-opacity:1;" d="M 24.609375 12.5 C 24.609375 19.1875 19.1875 24.609375 12.5 24.609375 C 5.8125 24.609375 0.390625 19.1875 0.390625 12.5 C 0.390625 5.8125 5.8125 0.390625 12.5 0.390625 C 19.1875 0.390625 24.609375 5.8125 24.609375 12.5 Z M 24.609375 12.5 "/>
<path style=" stroke:none;fill-rule:nonzero;fill:rgb(91.764706%,76.470588%,61.176471%);fill-opacity:1;" d="M 10.859375 8.847656 C 12.949219 8.046875 14.882812 6.523438 14.21875 3.222656 L 13.203125 0.410156 C 12.96875 0.390625 12.734375 0.390625 12.5 0.390625 C 9.003906 0.390625 5.859375 1.875 3.632812 4.238281 L 4.277344 5.898438 C 5.292969 8.535156 8.242188 9.863281 10.859375 8.847656 Z M 10.859375 8.847656 "/>
<use xlink:href="#surface5" mask="url(#mask0)"/>
<path style=" stroke:none;fill-rule:nonzero;fill:rgb(38.431373%,20.784314%,36.078431%);fill-opacity:1;" d="M 9.042969 9.433594 C 9.6875 9.433594 10.332031 9.316406 10.957031 9.082031 C 13.359375 8.164062 14.589844 6.640625 14.609375 4.53125 C 14.609375 3.886719 14.492188 3.222656 14.238281 2.519531 L 13.476562 0.429688 C 13.300781 0.410156 13.125 0.410156 12.949219 0.390625 L 13.769531 2.675781 C 14.003906 3.320312 14.121094 3.945312 14.121094 4.53125 C 14.101562 6.425781 13.007812 7.773438 10.78125 8.632812 C 10.214844 8.847656 9.648438 8.945312 9.042969 8.945312 C 7.050781 8.945312 5.214844 7.695312 4.511719 5.820312 L 3.828125 4.042969 C 3.710938 4.179688 3.574219 4.296875 3.457031 4.433594 L 4.042969 5.976562 C 4.84375 8.046875 6.835938 9.433594 9.042969 9.433594 Z M 9.042969 9.433594 "/>
<path style=" stroke:none;fill-rule:nonzero;fill:rgb(96.470588%,80.392157%,16.078431%);fill-opacity:1;" d="M 20.3125 12.265625 C 20.3125 16.582031 16.816406 20.078125 12.5 20.078125 C 8.183594 20.078125 4.6875 16.582031 4.6875 12.265625 C 4.6875 7.949219 8.183594 4.453125 12.5 4.453125 C 16.816406 4.453125 20.3125 7.949219 20.3125 12.265625 Z M 20.3125 12.265625 "/>
<path style=" stroke:none;fill-rule:nonzero;fill:rgb(99.607843%,89.411765%,26.666667%);fill-opacity:1;" d="M 20.3125 12.265625 C 20.3125 16.582031 16.816406 20.078125 12.5 20.078125 C 8.183594 20.078125 4.6875 16.582031 4.6875 12.265625 C 4.6875 7.949219 8.183594 4.453125 12.5 4.453125 C 16.816406 4.453125 20.3125 7.949219 20.3125 12.265625 Z M 20.3125 12.265625 "/>
<path style=" stroke:none;fill-rule:nonzero;fill:rgb(38.431373%,20.784314%,36.078431%);fill-opacity:1;" d="M 12.5 4.21875 C 8.066406 4.21875 4.453125 7.832031 4.453125 12.265625 C 4.453125 16.699219 8.066406 20.3125 12.5 20.3125 C 16.933594 20.3125 20.546875 16.699219 20.546875 12.265625 C 20.546875 7.832031 16.953125 4.21875 12.5 4.21875 Z M 12.5 19.84375 C 8.320312 19.84375 4.941406 16.445312 4.941406 12.285156 C 4.941406 8.125 8.339844 4.707031 12.5 4.707031 C 16.660156 4.707031 20.058594 8.105469 20.058594 12.265625 C 20.058594 16.425781 16.679688 19.84375 12.5 19.84375 Z M 12.5 19.84375 "/>
<use xlink:href="#surface8" mask="url(#mask1)"/>
<path style=" stroke:none;fill-rule:nonzero;fill:rgb(38.431373%,20.784314%,36.078431%);fill-opacity:1;" d="M 12.5 5.976562 C 9.023438 5.976562 6.210938 8.808594 6.210938 12.265625 C 6.210938 15.722656 9.023438 18.574219 12.5 18.574219 C 15.976562 18.574219 18.789062 15.742188 18.789062 12.285156 C 18.789062 8.828125 15.976562 5.976562 12.5 5.976562 Z M 12.5 18.085938 C 9.296875 18.085938 6.699219 15.488281 6.699219 12.285156 C 6.699219 9.082031 9.296875 6.464844 12.5 6.464844 C 15.703125 6.464844 18.300781 9.0625 18.300781 12.265625 C 18.300781 15.46875 15.703125 18.085938 12.5 18.085938 Z M 12.5 18.085938 "/>
<path style=" stroke:none;fill-rule:nonzero;fill:rgb(38.431373%,20.784314%,36.078431%);fill-opacity:1;" d="M 13.554688 12.324219 C 13.378906 12.207031 13.183594 12.128906 12.988281 12.070312 C 12.8125 12.011719 12.636719 11.972656 12.441406 11.914062 C 12.285156 11.875 12.109375 11.816406 11.953125 11.757812 C 11.835938 11.71875 11.71875 11.640625 11.621094 11.5625 C 11.542969 11.503906 11.484375 11.40625 11.425781 11.289062 C 11.386719 11.210938 11.347656 11.074219 11.347656 10.820312 C 11.347656 10.683594 11.367188 10.566406 11.40625 10.449219 C 11.445312 10.332031 11.523438 10.234375 11.601562 10.136719 C 11.679688 10.039062 11.796875 9.960938 11.933594 9.902344 C 12.070312 9.84375 12.246094 9.804688 12.460938 9.804688 C 12.65625 9.804688 12.832031 9.84375 12.96875 9.902344 C 13.105469 9.960938 13.203125 10.039062 13.300781 10.136719 C 13.378906 10.234375 13.457031 10.351562 13.496094 10.507812 C 13.554688 10.664062 13.710938 10.742188 13.867188 10.703125 C 14.023438 10.644531 14.101562 10.488281 14.0625 10.332031 C 14.003906 10.117188 13.886719 9.941406 13.75 9.765625 C 13.613281 9.609375 13.4375 9.472656 13.222656 9.375 C 13.085938 9.316406 12.929688 9.277344 12.753906 9.257812 L 12.753906 9.042969 C 12.753906 8.886719 12.617188 8.75 12.460938 8.75 C 12.304688 8.75 12.167969 8.886719 12.167969 9.042969 L 12.167969 9.257812 C 12.011719 9.277344 11.855469 9.316406 11.71875 9.375 C 11.503906 9.472656 11.328125 9.589844 11.171875 9.746094 C 11.035156 9.902344 10.917969 10.058594 10.859375 10.253906 C 10.78125 10.449219 10.761719 10.644531 10.761719 10.839844 C 10.761719 11.113281 10.800781 11.367188 10.898438 11.542969 C 10.976562 11.738281 11.09375 11.894531 11.25 12.011719 C 11.386719 12.128906 11.5625 12.226562 11.738281 12.304688 C 11.914062 12.382812 12.089844 12.441406 12.285156 12.480469 C 12.460938 12.539062 12.636719 12.578125 12.8125 12.636719 C 12.96875 12.675781 13.125 12.753906 13.242188 12.832031 C 13.359375 12.910156 13.457031 13.007812 13.535156 13.144531 C 13.613281 13.28125 13.652344 13.4375 13.652344 13.652344 C 13.652344 13.808594 13.632812 13.945312 13.59375 14.082031 C 13.554688 14.21875 13.476562 14.335938 13.398438 14.433594 C 13.320312 14.53125 13.203125 14.609375 13.066406 14.667969 C 12.929688 14.726562 12.773438 14.746094 12.578125 14.746094 C 12.421875 14.746094 12.265625 14.726562 12.109375 14.6875 C 11.972656 14.648438 11.835938 14.570312 11.738281 14.472656 C 11.621094 14.375 11.542969 14.238281 11.464844 14.0625 C 11.40625 13.90625 11.230469 13.847656 11.074219 13.90625 C 10.917969 13.964844 10.859375 14.140625 10.917969 14.296875 C 11.015625 14.53125 11.171875 14.746094 11.328125 14.902344 C 11.503906 15.058594 11.699219 15.175781 11.914062 15.234375 C 11.992188 15.253906 12.089844 15.273438 12.1875 15.292969 L 12.1875 15.527344 C 12.1875 15.683594 12.324219 15.820312 12.480469 15.820312 C 12.636719 15.820312 12.773438 15.683594 12.773438 15.527344 L 12.773438 15.3125 C 12.949219 15.292969 13.125 15.253906 13.28125 15.195312 C 13.496094 15.097656 13.691406 14.980469 13.828125 14.824219 C 13.964844 14.667969 14.082031 14.472656 14.140625 14.257812 C 14.199219 14.0625 14.238281 13.847656 14.238281 13.632812 C 14.238281 13.320312 14.179688 13.046875 14.042969 12.8125 C 13.90625 12.617188 13.75 12.441406 13.554688 12.324219 Z M 13.554688 12.324219 "/>
<path style=" stroke:none;fill-rule:nonzero;fill:rgb(91.764706%,76.470588%,61.176471%);fill-opacity:1;" d="M 10.078125 10.625 C 11.621094 8.964844 12.695312 6.699219 10.585938 3.984375 L 7.8125 1.328125 C 4.453125 2.753906 1.875 5.625 0.859375 9.179688 L 2.753906 10.917969 C 4.863281 12.851562 8.144531 12.714844 10.078125 10.625 Z M 10.078125 10.625 "/>
<path style=" stroke:none;fill-rule:nonzero;fill:rgb(71.764706%,57.647059%,41.960784%);fill-opacity:1;" d="M 6.269531 12.539062 C 7.792969 12.539062 9.238281 11.894531 10.253906 10.78125 C 12.382812 8.457031 12.558594 6.132812 10.761719 3.828125 L 8.046875 1.230469 C 7.890625 1.289062 7.714844 1.367188 7.558594 1.445312 L 10.390625 4.140625 C 12.03125 6.25 11.855469 8.320312 9.902344 10.449219 C 8.964844 11.464844 7.636719 12.050781 6.269531 12.050781 C 5.039062 12.050781 3.847656 11.582031 2.929688 10.742188 L 0.9375 8.90625 C 0.878906 9.082031 0.839844 9.257812 0.78125 9.433594 L 2.597656 11.09375 C 3.59375 12.03125 4.902344 12.539062 6.269531 12.539062 Z M 6.269531 12.539062 "/>
<path style=" stroke:none;fill-rule:nonzero;fill:rgb(38.431373%,20.784314%,36.078431%);fill-opacity:1;" d="M 6.269531 12.539062 C 7.792969 12.539062 9.238281 11.894531 10.253906 10.78125 C 12.207031 8.652344 12.519531 6.503906 11.152344 4.394531 C 10.957031 4.082031 10.683594 3.769531 10.371094 3.457031 L 8.046875 1.230469 C 7.890625 1.289062 7.714844 1.367188 7.558594 1.445312 L 10.039062 3.808594 C 10.332031 4.082031 10.566406 4.375 10.742188 4.648438 C 11.972656 6.582031 11.699219 8.476562 9.882812 10.449219 C 8.945312 11.464844 7.617188 12.050781 6.25 12.050781 C 5.019531 12.050781 3.828125 11.582031 2.910156 10.742188 L 0.9375 8.90625 C 0.878906 9.082031 0.839844 9.257812 0.78125 9.433594 L 2.597656 11.09375 C 3.59375 12.03125 4.902344 12.539062 6.269531 12.539062 Z M 6.269531 12.539062 "/>
<use xlink:href="#surface11" mask="url(#mask2)"/>
<path style=" stroke:none;fill-rule:nonzero;fill:rgb(38.431373%,20.784314%,36.078431%);fill-opacity:1;" d="M 3.554688 10.46875 C 4.179688 11.171875 5.097656 11.5625 6.132812 11.5625 C 7.324219 11.5625 8.515625 11.054688 9.453125 10.175781 C 10.488281 9.199219 11.015625 7.949219 10.957031 6.699219 C 10.898438 5.605469 10.390625 4.609375 9.570312 3.945312 C 8.535156 3.144531 7.5 2.382812 6.796875 1.875 C 6.777344 1.855469 6.757812 1.855469 6.757812 1.835938 C 6.601562 1.933594 6.425781 2.011719 6.269531 2.109375 C 6.347656 2.148438 6.445312 2.207031 6.523438 2.265625 C 7.207031 2.773438 8.261719 3.515625 9.277344 4.316406 C 10 4.882812 10.429688 5.742188 10.488281 6.699219 C 10.546875 7.8125 10.058594 8.925781 9.121094 9.804688 C 8.28125 10.605469 7.207031 11.054688 6.152344 11.054688 C 5.253906 11.054688 4.472656 10.722656 3.945312 10.136719 C 3.066406 9.160156 2.246094 8.242188 1.699219 7.65625 C 1.640625 7.578125 1.582031 7.5 1.523438 7.421875 C 1.445312 7.597656 1.367188 7.753906 1.308594 7.929688 C 1.328125 7.949219 1.328125 7.96875 1.347656 7.96875 C 1.855469 8.574219 2.675781 9.492188 3.554688 10.46875 Z M 3.554688 10.46875 "/>
</g>
</svg>
