<?xml version="1.0" encoding="UTF-8"?>
<svg xmlns="http://www.w3.org/2000/svg" xmlns:xlink="http://www.w3.org/1999/xlink" width="20pt" height="20pt" viewBox="0 0 20 20" version="1.1">
<g id="surface1">
<path style=" stroke:none;fill-rule:nonzero;fill:rgb(100%,65.882353%,36.470588%);fill-opacity:1;" d="M 1.046875 11.9375 L 1.046875 18.445312 L 7.28125 18.445312 L 7.28125 11.9375 Z M 1.046875 11.9375 "/>
<path style=" stroke:none;fill-rule:nonzero;fill:rgb(100%,59.607843%,22.352941%);fill-opacity:1;" d="M 3.226562 11.9375 L 1.046875 11.9375 L 1.046875 18.445312 L 3.226562 18.445312 Z M 3.226562 11.9375 "/>
<path style=" stroke:none;fill-rule:nonzero;fill:rgb(100%,65.882353%,36.470588%);fill-opacity:1;" d="M 9.023438 18.445312 L 11.246094 18.445312 L 11.246094 11.9375 L 9.023438 11.9375 Z M 9.023438 18.445312 "/>
<path style=" stroke:none;fill-rule:nonzero;fill:rgb(100%,59.607843%,22.352941%);fill-opacity:1;" d="M 10 13.011719 L 9.023438 13.011719 L 9.023438 17.339844 L 10 17.339844 C 10.132812 17.339844 10.242188 17.230469 10.242188 17.097656 L 10.242188 13.253906 C 10.242188 13.121094 10.132812 13.011719 10 13.011719 Z M 10 13.011719 "/>
<path style=" stroke:none;fill-rule:nonzero;fill:rgb(100%,59.607843%,22.352941%);fill-opacity:1;" d="M 7.28125 13.011719 L 2.308594 13.011719 C 2.175781 13.011719 2.070312 13.121094 2.070312 13.253906 L 2.070312 17.097656 C 2.070312 17.230469 2.175781 17.339844 2.308594 17.339844 L 7.28125 17.339844 Z M 7.28125 13.011719 "/>
<path style=" stroke:none;fill-rule:nonzero;fill:rgb(100%,52.54902%,2.745098%);fill-opacity:1;" d="M 3.226562 13.011719 L 2.308594 13.011719 C 2.175781 13.011719 2.070312 13.121094 2.070312 13.253906 L 2.070312 17.097656 C 2.070312 17.230469 2.175781 17.339844 2.308594 17.339844 L 3.226562 17.339844 Z M 3.226562 13.011719 "/>
<path style=" stroke:none;fill-rule:nonzero;fill:rgb(87.45098%,92.156863%,98.039216%);fill-opacity:1;" d="M 11.550781 18.328125 C 10.160156 18.328125 1.882812 18.328125 0.757812 18.328125 C 0.5 18.328125 0.292969 18.539062 0.292969 18.792969 L 0.292969 19.253906 C 0.292969 19.507812 0.5 19.71875 0.757812 19.71875 L 11.550781 19.71875 C 11.808594 19.71875 12.015625 19.507812 12.015625 19.253906 L 12.015625 18.792969 C 12.015625 18.539062 11.808594 18.328125 11.550781 18.328125 Z M 11.550781 18.328125 "/>
<path style=" stroke:none;fill-rule:nonzero;fill:rgb(69.411765%,85.882353%,98.823529%);fill-opacity:1;" d="M 2.648438 19.253906 L 2.648438 18.792969 C 2.648438 18.539062 2.855469 18.328125 3.113281 18.328125 C 1.964844 18.328125 1.074219 18.328125 0.757812 18.328125 C 0.5 18.328125 0.292969 18.539062 0.292969 18.792969 L 0.292969 19.253906 C 0.292969 19.507812 0.5 19.71875 0.757812 19.71875 L 3.113281 19.71875 C 2.855469 19.71875 2.648438 19.507812 2.648438 19.253906 Z M 2.648438 19.253906 "/>
<path style=" stroke:none;fill-rule:nonzero;fill:rgb(13.72549%,65.882353%,99.607843%);fill-opacity:1;" d="M 1.046875 4.65625 L 1.046875 12.015625 L 7.28125 12.015625 L 7.28125 8.800781 C 7.28125 8.273438 7.625 7.929688 8.152344 7.929688 C 8.675781 7.929688 9.023438 8.273438 9.023438 8.800781 L 9.023438 10.003906 L 11.246094 10.003906 L 11.246094 4.65625 Z M 1.046875 4.65625 "/>
<path style=" stroke:none;fill-rule:nonzero;fill:rgb(0.392157%,57.647059%,98.039216%);fill-opacity:1;" d="M 1.046875 4.65625 L 3.226562 4.65625 L 3.226562 12.015625 L 1.046875 12.015625 Z M 1.046875 4.65625 "/>
<path style=" stroke:none;fill-rule:nonzero;fill:rgb(87.45098%,92.156863%,98.039216%);fill-opacity:1;" d="M 1.046875 2.984375 L 11.246094 2.984375 L 11.246094 4.695312 L 1.046875 4.695312 Z M 1.046875 2.984375 "/>
<path style=" stroke:none;fill-rule:nonzero;fill:rgb(69.411765%,85.882353%,98.823529%);fill-opacity:1;" d="M 1.046875 2.984375 L 3.226562 2.984375 L 3.226562 4.695312 L 1.046875 4.695312 Z M 1.046875 2.984375 "/>
<path style=" stroke:none;fill-rule:nonzero;fill:rgb(100%,27.843137%,33.72549%);fill-opacity:1;" d="M 11.269531 1.988281 L 1.019531 1.988281 C 0.765625 1.988281 0.554688 2.195312 0.554688 2.453125 L 0.554688 2.726562 C 0.554688 2.980469 0.765625 3.1875 1.019531 3.1875 L 11.269531 3.1875 C 11.523438 3.1875 11.734375 2.980469 11.734375 2.726562 L 11.734375 2.453125 C 11.734375 2.195312 11.523438 1.988281 11.269531 1.988281 Z M 11.269531 1.988281 "/>
<path style=" stroke:none;fill-rule:nonzero;fill:rgb(98.823529%,17.647059%,22.352941%);fill-opacity:1;" d="M 2.589844 2.726562 L 2.589844 2.453125 C 2.589844 2.195312 2.796875 1.988281 3.054688 1.988281 L 1.019531 1.988281 C 0.765625 1.988281 0.554688 2.195312 0.554688 2.453125 L 0.554688 2.726562 C 0.554688 2.980469 0.765625 3.191406 1.019531 3.191406 L 3.054688 3.191406 C 2.796875 3.191406 2.589844 2.980469 2.589844 2.726562 Z M 2.589844 2.726562 "/>
<path style=" stroke:none;fill-rule:nonzero;fill:rgb(100%,39.607843%,43.529412%);fill-opacity:1;" d="M 11.164062 1.988281 C 10.941406 1.109375 10.300781 0.304688 9.550781 0.304688 L 2.738281 0.304688 C 1.988281 0.304688 1.347656 1.109375 1.125 1.988281 Z M 11.164062 1.988281 "/>
<path style=" stroke:none;fill-rule:nonzero;fill:rgb(100%,27.843137%,33.72549%);fill-opacity:1;" d="M 4.769531 0.304688 L 2.738281 0.304688 C 1.988281 0.304688 1.347656 1.109375 1.125 1.988281 L 3.160156 1.988281 C 3.378906 1.109375 4.019531 0.304688 4.769531 0.304688 Z M 4.769531 0.304688 "/>
<path style=" stroke:none;fill-rule:nonzero;fill:rgb(87.45098%,92.156863%,98.039216%);fill-opacity:1;" d="M 19.257812 9.925781 L 9.074219 9.925781 L 9.074219 12.015625 L 19.257812 12.015625 C 19.503906 12.015625 19.707031 11.8125 19.707031 11.566406 L 19.707031 10.375 C 19.707031 10.125 19.503906 9.925781 19.257812 9.925781 Z M 19.257812 9.925781 "/>
<path style=" stroke:none;fill-rule:nonzero;fill:rgb(69.411765%,85.882353%,98.823529%);fill-opacity:1;" d="M 9.074219 9.925781 L 11.246094 9.925781 L 11.246094 12.015625 L 9.074219 12.015625 Z M 9.074219 9.925781 "/>
<path style=" stroke:none;fill-rule:nonzero;fill:rgb(100%,27.843137%,33.72549%);fill-opacity:1;" d="M 16.902344 12.015625 L 18.882812 12.015625 L 17.515625 9.925781 L 15.535156 9.925781 Z M 16.902344 12.015625 "/>
<path style=" stroke:none;fill-rule:nonzero;fill:rgb(100%,27.843137%,33.72549%);fill-opacity:1;" d="M 12.976562 12.015625 L 14.957031 12.015625 L 13.589844 9.925781 L 11.609375 9.925781 Z M 12.976562 12.015625 "/>
<path style=" stroke:none;fill-rule:nonzero;fill:rgb(98.823529%,17.647059%,22.352941%);fill-opacity:1;" d="M 9.664062 9.925781 L 9.074219 9.925781 L 9.074219 12.015625 L 11.03125 12.015625 Z M 9.664062 9.925781 "/>
<path style=" stroke:none;fill-rule:nonzero;fill:rgb(100%,82.745098%,0.392157%);fill-opacity:1;" d="M 9.101562 18.445312 L 9.101562 8.800781 C 9.101562 8.273438 8.675781 7.851562 8.152344 7.851562 C 7.625 7.851562 7.203125 8.273438 7.203125 8.800781 L 7.203125 18.445312 Z M 9.101562 18.445312 "/>
<path style=" stroke:none;fill-rule:nonzero;fill:rgb(100%,76.078431%,4.705882%);fill-opacity:1;" d="M 8.613281 7.96875 C 8.476562 7.894531 8.320312 7.851562 8.152344 7.851562 C 7.625 7.851562 7.203125 8.273438 7.203125 8.800781 L 7.203125 18.445312 L 8.125 18.445312 L 8.125 8.800781 C 8.125 8.441406 8.324219 8.132812 8.613281 7.96875 Z M 8.613281 7.96875 "/>
<path style=" stroke:none;fill-rule:nonzero;fill:rgb(48.235294%,42.352941%,47.45098%);fill-opacity:1;" d="M 9.59375 18.328125 L 6.707031 18.328125 C 6.453125 18.328125 6.242188 18.539062 6.242188 18.792969 L 6.242188 19.253906 C 6.242188 19.507812 6.453125 19.71875 6.707031 19.71875 L 9.59375 19.71875 C 9.851562 19.71875 10.058594 19.507812 10.058594 19.253906 L 10.058594 18.792969 C 10.058594 18.539062 9.851562 18.328125 9.59375 18.328125 Z M 9.59375 18.328125 "/>
<path style=" stroke:none;fill-rule:nonzero;fill:rgb(33.333333%,30.588235%,33.72549%);fill-opacity:1;" d="M 7.722656 19.253906 L 7.722656 18.792969 C 7.722656 18.539062 7.933594 18.328125 8.1875 18.328125 L 6.707031 18.328125 C 6.453125 18.328125 6.242188 18.539062 6.242188 18.792969 L 6.242188 19.253906 C 6.242188 19.507812 6.453125 19.71875 6.707031 19.71875 L 8.1875 19.71875 C 7.933594 19.71875 7.722656 19.507812 7.722656 19.253906 Z M 7.722656 19.253906 "/>
<path style=" stroke:none;fill-rule:nonzero;fill:rgb(1.960784%,1.568627%,0.784314%);fill-opacity:1;" d="M 19.257812 9.621094 C 17.707031 9.621094 13.203125 9.621094 11.539062 9.621094 C 11.539062 8.941406 11.539062 4.042969 11.539062 3.421875 C 11.824219 3.3125 12.027344 3.035156 12.027344 2.714844 L 12.027344 2.441406 C 12.027344 2.0625 11.746094 1.75 11.386719 1.691406 C 11.097656 0.820312 10.414062 0 9.550781 0 L 6.828125 0 C 6.667969 0 6.535156 0.132812 6.535156 0.292969 C 6.535156 0.453125 6.667969 0.585938 6.828125 0.585938 L 9.550781 0.585938 C 9.953125 0.585938 10.472656 0.96875 10.761719 1.683594 L 1.527344 1.683594 C 1.816406 0.96875 2.335938 0.585938 2.738281 0.585938 L 5.460938 0.585938 C 5.625 0.585938 5.753906 0.453125 5.753906 0.292969 C 5.753906 0.132812 5.625 0 5.460938 0 L 2.738281 0 C 1.878906 0 1.191406 0.820312 0.902344 1.691406 C 0.542969 1.75 0.261719 2.0625 0.261719 2.441406 L 0.261719 2.714844 C 0.261719 3.039062 0.46875 3.316406 0.753906 3.421875 L 0.753906 18.027344 C 0.339844 18.027344 0 18.367188 0 18.785156 L 0 19.242188 C 0 19.660156 0.339844 20 0.757812 20 L 11.550781 20 C 11.96875 20 12.308594 19.660156 12.308594 19.242188 L 12.308594 18.785156 C 12.308594 18.367188 11.96875 18.027344 11.550781 18.027344 L 11.539062 18.027344 L 11.539062 15.847656 C 11.539062 15.6875 11.410156 15.554688 11.246094 15.554688 C 11.085938 15.554688 10.953125 15.6875 10.953125 15.847656 L 10.953125 18.027344 C 10.546875 18.027344 9.785156 18.027344 9.394531 18.027344 L 9.394531 17.621094 L 10 17.621094 C 10.292969 17.621094 10.535156 17.382812 10.535156 17.089844 L 10.535156 13.242188 C 10.535156 12.949219 10.292969 12.707031 10 12.707031 L 9.394531 12.707031 L 9.394531 12.296875 L 10.953125 12.296875 L 10.953125 14.480469 C 10.953125 14.644531 11.085938 14.773438 11.246094 14.773438 C 11.410156 14.773438 11.539062 14.644531 11.539062 14.480469 L 11.539062 12.296875 L 19.257812 12.296875 C 19.667969 12.296875 20 11.964844 20 11.554688 L 20 10.363281 C 20 9.953125 19.667969 9.621094 19.257812 9.621094 Z M 15.128906 11.710938 L 14.144531 10.207031 L 15.386719 10.207031 L 16.367188 11.710938 Z M 11.246094 11.710938 L 11.210938 11.710938 L 10.230469 10.207031 L 11.46875 10.207031 L 12.449219 11.710938 Z M 9.394531 9.621094 L 9.394531 8.789062 C 9.394531 8.101562 8.835938 7.546875 8.152344 7.546875 C 7.464844 7.546875 6.910156 8.101562 6.910156 8.789062 L 6.910156 11.710938 L 1.339844 11.710938 L 1.339844 4.976562 L 10.953125 4.976562 L 10.953125 9.621094 C 10 9.621094 9.941406 9.621094 9.394531 9.621094 Z M 1.339844 18.027344 L 1.339844 12.296875 L 6.910156 12.296875 L 6.910156 12.707031 L 2.308594 12.707031 C 2.015625 12.707031 1.777344 12.949219 1.777344 13.242188 L 1.777344 17.089844 C 1.777344 17.382812 2.015625 17.621094 2.308594 17.621094 L 6.910156 17.621094 L 6.910156 18.027344 C 6.175781 18.027344 1.9375 18.027344 1.339844 18.027344 Z M 10.953125 4.390625 L 1.339844 4.390625 L 1.339844 3.472656 L 10.953125 3.472656 Z M 6.910156 17.035156 L 2.363281 17.035156 L 2.363281 13.292969 L 6.910156 13.292969 Z M 11.269531 2.269531 C 11.363281 2.269531 11.441406 2.347656 11.441406 2.441406 L 11.441406 2.714844 C 11.441406 2.808594 11.363281 2.886719 11.269531 2.886719 L 1.019531 2.886719 C 0.925781 2.886719 0.847656 2.808594 0.847656 2.714844 L 0.847656 2.441406 C 0.847656 2.347656 0.925781 2.269531 1.019531 2.269531 Z M 0.585938 19.242188 L 0.585938 18.785156 C 0.585938 18.691406 0.664062 18.613281 0.757812 18.613281 L 5.96875 18.613281 C 5.957031 18.667969 5.949219 18.722656 5.949219 18.785156 L 5.949219 19.242188 C 5.949219 19.300781 5.957031 19.359375 5.96875 19.414062 L 0.757812 19.414062 C 0.664062 19.414062 0.585938 19.335938 0.585938 19.242188 Z M 11.550781 18.613281 C 11.644531 18.613281 11.722656 18.691406 11.722656 18.785156 L 11.722656 19.242188 C 11.722656 19.335938 11.644531 19.414062 11.550781 19.414062 L 10.332031 19.414062 C 10.34375 19.359375 10.351562 19.300781 10.351562 19.242188 L 10.351562 18.785156 C 10.351562 18.722656 10.34375 18.667969 10.332031 18.613281 Z M 9.59375 18.613281 C 9.6875 18.613281 9.765625 18.691406 9.765625 18.785156 L 9.765625 19.242188 C 9.765625 19.335938 9.6875 19.414062 9.59375 19.414062 L 6.707031 19.414062 C 6.613281 19.414062 6.535156 19.335938 6.535156 19.242188 L 6.535156 18.785156 C 6.535156 18.691406 6.613281 18.613281 6.707031 18.613281 Z M 7.496094 18.027344 C 7.496094 17.734375 7.496094 9.429688 7.496094 8.789062 C 7.496094 8.425781 7.789062 8.132812 8.152344 8.132812 C 8.511719 8.132812 8.808594 8.425781 8.808594 8.789062 L 8.808594 18.027344 Z M 9.949219 13.292969 L 9.949219 17.035156 L 9.394531 17.035156 L 9.394531 13.292969 Z M 9.394531 11.710938 L 9.394531 10.207031 L 9.527344 10.207031 L 10.511719 11.710938 Z M 13.148438 11.710938 L 12.167969 10.207031 L 13.445312 10.207031 L 14.425781 11.710938 Z M 17.066406 11.710938 L 16.085938 10.207031 L 17.363281 10.207031 L 18.34375 11.710938 Z M 19.414062 11.554688 C 19.414062 11.640625 19.34375 11.710938 19.257812 11.710938 L 19.042969 11.710938 L 18.0625 10.207031 L 19.257812 10.207031 C 19.34375 10.207031 19.414062 10.277344 19.414062 10.363281 Z M 19.414062 11.554688 "/>
<path style=" stroke:none;fill-rule:nonzero;fill:rgb(1.960784%,1.568627%,0.784314%);fill-opacity:1;" d="M 8.152344 10.308594 C 7.988281 10.308594 7.859375 10.441406 7.859375 10.601562 L 7.859375 11.285156 C 7.859375 11.449219 7.988281 11.578125 8.152344 11.578125 C 8.3125 11.578125 8.445312 11.449219 8.445312 11.285156 L 8.445312 10.601562 C 8.445312 10.441406 8.3125 10.308594 8.152344 10.308594 Z M 8.152344 10.308594 "/>
<path style=" stroke:none;fill-rule:nonzero;fill:rgb(1.960784%,1.568627%,0.784314%);fill-opacity:1;" d="M 3.761719 5.789062 C 3.648438 5.675781 3.460938 5.675781 3.347656 5.789062 L 2.175781 6.960938 C 2.058594 7.078125 2.058594 7.261719 2.175781 7.375 C 2.289062 7.492188 2.472656 7.492188 2.589844 7.375 L 3.761719 6.203125 C 3.875 6.089844 3.875 5.902344 3.761719 5.789062 Z M 3.761719 5.789062 "/>
<path style=" stroke:none;fill-rule:nonzero;fill:rgb(1.960784%,1.568627%,0.784314%);fill-opacity:1;" d="M 4.550781 6.289062 L 2.675781 8.167969 C 2.558594 8.28125 2.558594 8.46875 2.675781 8.582031 C 2.789062 8.695312 2.976562 8.695312 3.089844 8.582031 L 4.964844 6.703125 C 5.082031 6.589844 5.082031 6.40625 4.964844 6.289062 C 4.851562 6.175781 4.667969 6.175781 4.550781 6.289062 Z M 4.550781 6.289062 "/>
</g>
</svg>
