<?xml version="1.0" encoding="UTF-8"?>
<svg xmlns="http://www.w3.org/2000/svg" xmlns:xlink="http://www.w3.org/1999/xlink" width="24pt" height="24pt" viewBox="0 0 24 24" version="1.1">
<g id="surface1">
<path style=" stroke:none;fill-rule:nonzero;fill:rgb(38.039216%,39.215686%,41.176471%);fill-opacity:1;" d="M 1.5 23.25 L 1.5 18.75 C 1.5 18.128906 2.003906 17.625 2.625 17.625 C 3.246094 17.625 3.75 18.128906 3.75 18.75 L 3.75 23.25 Z M 1.5 23.25 "/>
<path style=" stroke:none;fill-rule:nonzero;fill:rgb(75.686275%,78.431373%,81.960784%);fill-opacity:1;" d="M 1.5 21 L 3.75 21 L 3.75 23.25 L 1.5 23.25 Z M 1.5 21 "/>
<path style=" stroke:none;fill-rule:nonzero;fill:rgb(38.039216%,39.215686%,41.176471%);fill-opacity:1;" d="M 12.75 16.125 L 2.625 16.125 C 2.003906 16.125 1.5 15.621094 1.5 15 C 1.5 14.378906 2.003906 13.875 2.625 13.875 L 12.75 13.875 Z M 12.75 16.125 "/>
<path style=" stroke:none;fill-rule:nonzero;fill:rgb(97.647059%,81.960784%,54.509804%);fill-opacity:1;" d="M 7.125 13.875 L 4.875 16.125 L 2.625 16.125 L 4.875 13.875 Z M 7.125 13.875 "/>
<path style=" stroke:none;fill-rule:nonzero;fill:rgb(97.647059%,81.960784%,54.509804%);fill-opacity:1;" d="M 11.625 13.875 L 9.375 16.125 L 7.125 16.125 L 9.375 13.875 Z M 11.625 13.875 "/>
<path style=" stroke:none;fill-rule:nonzero;fill:rgb(39.215686%,64.705882%,97.254902%);fill-opacity:1;" d="M 22.5 7.5 L 12 7.5 L 13.5 5.25 L 21 5.25 Z M 22.5 7.5 "/>
<path style=" stroke:none;fill-rule:nonzero;fill:rgb(51.372549%,71.764706%,97.647059%);fill-opacity:1;" d="M 20.25 7.125 C 20.25 6.496094 20.207031 5.871094 20.125 5.25 L 13.5 5.25 L 12 7.5 L 20.242188 7.5 C 20.246094 7.375 20.25 7.25 20.25 7.125 Z M 20.25 7.125 "/>
<path style=" stroke:none;fill-rule:nonzero;fill:rgb(75.686275%,78.431373%,81.960784%);fill-opacity:1;" d="M 12.75 7.5 L 21.75 7.5 L 21.75 21.75 L 12.75 21.75 Z M 12.75 7.5 "/>
<path style=" stroke:none;fill-rule:nonzero;fill:rgb(90.196078%,91.372549%,92.941176%);fill-opacity:1;" d="M 12.75 19.242188 C 17.054688 17.308594 20.105469 12.796875 20.242188 7.5 L 12.75 7.5 Z M 12.75 19.242188 "/>
<path style=" stroke:none;fill-rule:nonzero;fill:rgb(100%,100%,100%);fill-opacity:1;" d="M 14.25 9 L 20.25 9 L 20.25 15.75 L 14.25 15.75 Z M 14.25 9 "/>
<path style=" stroke:none;fill-rule:nonzero;fill:rgb(39.215686%,64.705882%,97.254902%);fill-opacity:1;" d="M 15.75 15.75 L 15.75 13.875 C 15.75 13.046875 16.421875 12.375 17.25 12.375 C 18.078125 12.375 18.75 13.046875 18.75 13.875 L 18.75 15.75 Z M 15.75 15.75 "/>
<path style=" stroke:none;fill-rule:nonzero;fill:rgb(39.215686%,64.705882%,97.254902%);fill-opacity:1;" d="M 14.25 17.25 L 20.25 17.25 L 20.25 20.25 L 14.25 20.25 Z M 14.25 17.25 "/>
<path style=" stroke:none;fill-rule:nonzero;fill:rgb(38.039216%,39.215686%,41.176471%);fill-opacity:1;" d="M 12 21.75 L 22.5 21.75 L 22.5 23.25 L 12 23.25 Z M 12 21.75 "/>
<path style=" stroke:none;fill-rule:nonzero;fill:rgb(97.647059%,81.960784%,54.509804%);fill-opacity:1;" d="M 10.5 5.25 C 10.5 7.734375 8.484375 9.75 6 9.75 C 3.515625 9.75 1.5 7.734375 1.5 5.25 C 1.5 2.765625 3.515625 0.75 6 0.75 C 8.484375 0.75 10.5 2.765625 10.5 5.25 Z M 10.5 5.25 "/>
<path style=" stroke:none;fill-rule:nonzero;fill:rgb(98.431373%,89.019608%,72.54902%);fill-opacity:1;" d="M 1.5 5.25 C 1.5 6.679688 2.179688 8.019531 3.332031 8.867188 C 6.347656 8.242188 8.625 5.433594 8.625 2.0625 C 8.625 1.902344 8.613281 1.742188 8.601562 1.582031 C 7.230469 0.605469 5.429688 0.476562 3.933594 1.25 C 2.4375 2.023438 1.496094 3.566406 1.5 5.25 Z M 1.5 5.25 "/>
<path style="fill:none;stroke-width:2;stroke-linecap:butt;stroke-linejoin:round;stroke:rgb(0%,0%,0%);stroke-opacity:1;stroke-miterlimit:4;" d="M 34 58 L 34 20 " transform="matrix(0.375,0,0,0.375,0,0)"/>
<path style="fill:none;stroke-width:2;stroke-linecap:butt;stroke-linejoin:round;stroke:rgb(0%,0%,0%);stroke-opacity:1;stroke-miterlimit:4;" d="M 58 20 L 58 58 " transform="matrix(0.375,0,0,0.375,0,0)"/>
<path style="fill:none;stroke-width:2;stroke-linecap:butt;stroke-linejoin:round;stroke:rgb(0%,0%,0%);stroke-opacity:1;stroke-miterlimit:4;" d="M 60 20 L 32 20 L 36 14 L 56 14 Z M 60 20 " transform="matrix(0.375,0,0,0.375,0,0)"/>
<path style="fill:none;stroke-width:2;stroke-linecap:butt;stroke-linejoin:round;stroke:rgb(0%,0%,0%);stroke-opacity:1;stroke-miterlimit:4;" d="M 32 62 L 32 58 L 60 58 L 60 62 " transform="matrix(0.375,0,0,0.375,0,0)"/>
<path style="fill:none;stroke-width:2;stroke-linecap:butt;stroke-linejoin:round;stroke:rgb(0%,0%,0%);stroke-opacity:1;stroke-miterlimit:4;" d="M 38 46 L 54 46 L 54 54 L 38 54 Z M 38 46 " transform="matrix(0.375,0,0,0.375,0,0)"/>
<path style="fill:none;stroke-width:2;stroke-linecap:butt;stroke-linejoin:round;stroke:rgb(0%,0%,0%);stroke-opacity:1;stroke-miterlimit:4;" d="M 41 50 L 51 50 " transform="matrix(0.375,0,0,0.375,0,0)"/>
<path style="fill:none;stroke-width:2;stroke-linecap:butt;stroke-linejoin:round;stroke:rgb(0%,0%,0%);stroke-opacity:1;stroke-miterlimit:4;" d="M 38 24 L 54 24 L 54 42 L 38 42 Z M 38 24 " transform="matrix(0.375,0,0,0.375,0,0)"/>
<path style="fill:none;stroke-width:2;stroke-linecap:butt;stroke-linejoin:round;stroke:rgb(0%,0%,0%);stroke-opacity:1;stroke-miterlimit:4;" d="M 42 42 L 42 37 C 42 34.791667 43.791667 33 46 33 C 48.208333 33 50 34.791667 50 37 L 50 42 " transform="matrix(0.375,0,0,0.375,0,0)"/>
<path style="fill:none;stroke-width:2;stroke-linecap:butt;stroke-linejoin:round;stroke:rgb(0%,0%,0%);stroke-opacity:1;stroke-miterlimit:4;" d="M 4 62 L 4 50 C 4 48.34375 5.34375 47 7 47 C 8.65625 47 10 48.34375 10 50 L 10 62 " transform="matrix(0.375,0,0,0.375,0,0)"/>
<path style="fill:none;stroke-width:2;stroke-linecap:butt;stroke-linejoin:round;stroke:rgb(0%,0%,0%);stroke-opacity:1;stroke-miterlimit:4;" d="M 4 56 L 10 56 " transform="matrix(0.375,0,0,0.375,0,0)"/>
<path style="fill:none;stroke-width:2;stroke-linecap:butt;stroke-linejoin:round;stroke:rgb(0%,0%,0%);stroke-opacity:1;stroke-miterlimit:4;" d="M 1 62 L 63 62 " transform="matrix(0.375,0,0,0.375,0,0)"/>
<path style="fill:none;stroke-width:2;stroke-linecap:butt;stroke-linejoin:round;stroke:rgb(0%,0%,0%);stroke-opacity:1;stroke-miterlimit:4;" d="M 34 43 L 7 43 C 5.34375 43 4 41.65625 4 40 C 4 38.34375 5.34375 37 7 37 L 34 37 " transform="matrix(0.375,0,0,0.375,0,0)"/>
<path style="fill:none;stroke-width:2;stroke-linecap:butt;stroke-linejoin:round;stroke:rgb(0%,0%,0%);stroke-opacity:1;stroke-miterlimit:4;" d="M 7 43 L 13 37 " transform="matrix(0.375,0,0,0.375,0,0)"/>
<path style="fill:none;stroke-width:2;stroke-linecap:butt;stroke-linejoin:round;stroke:rgb(0%,0%,0%);stroke-opacity:1;stroke-miterlimit:4;" d="M 13 43 L 19 37 " transform="matrix(0.375,0,0,0.375,0,0)"/>
<path style="fill:none;stroke-width:2;stroke-linecap:butt;stroke-linejoin:round;stroke:rgb(0%,0%,0%);stroke-opacity:1;stroke-miterlimit:4;" d="M 19 43 L 25 37 " transform="matrix(0.375,0,0,0.375,0,0)"/>
<path style="fill:none;stroke-width:2;stroke-linecap:butt;stroke-linejoin:round;stroke:rgb(0%,0%,0%);stroke-opacity:1;stroke-miterlimit:4;" d="M 25 43 L 31 37 " transform="matrix(0.375,0,0,0.375,0,0)"/>
<path style="fill:none;stroke-width:2;stroke-linecap:butt;stroke-linejoin:round;stroke:rgb(0%,0%,0%);stroke-opacity:1;stroke-miterlimit:4;" d="M 19 11 C 19 9.34375 17.65625 8 16 8 C 14.34375 8 13 9.34375 13 11 C 13 12.65625 14.34375 14 16 14 C 17.65625 14 19 15.34375 19 17 C 19 18.65625 17.65625 20 16 20 C 14.34375 20 13 18.65625 13 17 " transform="matrix(0.375,0,0,0.375,0,0)"/>
<path style="fill:none;stroke-width:2;stroke-linecap:butt;stroke-linejoin:round;stroke:rgb(0%,0%,0%);stroke-opacity:1;stroke-miterlimit:4;" d="M 16 8 L 16 5 " transform="matrix(0.375,0,0,0.375,0,0)"/>
<path style="fill:none;stroke-width:2;stroke-linecap:butt;stroke-linejoin:round;stroke:rgb(0%,0%,0%);stroke-opacity:1;stroke-miterlimit:4;" d="M 16 20 L 16 23 " transform="matrix(0.375,0,0,0.375,0,0)"/>
<path style="fill:none;stroke-width:2;stroke-linecap:butt;stroke-linejoin:round;stroke:rgb(0%,0%,0%);stroke-opacity:1;stroke-miterlimit:4;" d="M 28 14 C 28 20.625 22.625 26 16 26 C 9.375 26 4 20.625 4 14 C 4 7.375 9.375 2 16 2 C 22.625 2 28 7.375 28 14 Z M 28 14 " transform="matrix(0.375,0,0,0.375,0,0)"/>
</g>
</svg>
